<svg xmlns="http://www.w3.org/2000/svg" xmlns:xlink="http://www.w3.org/1999/xlink" width="629" height="418" xmlns:v="https://vecta.io/nano"><style><![CDATA[.B{fill:#fff}.C{fill:#fca7a7}.D{fill:#a9cad8}.E{fill:#b5eac6}.F{fill:#bfedef}.G{fill:#eaf2f9}.H{fill:#6d99ce}.I{opacity:.15}.J{fill:#dae4f2}.K{fill:#ef8f90}.L{fill:#aad1f9}.M{fill:#c8d6ed}.N{fill:#e4eff4}.O{fill:#c6f7d6}.P{fill:#56e189}.Q{fill:#89eaad}.R{fill:#c8e1fd}.S{fill:#bad3f7}.T{fill:#6d6d89}.U{fill:#00e07b}.V{fill:#d5ebf7}.W{fill:#abeff4}]]></style><defs><linearGradient x1="98.6043381%" y1="31.0404402%" x2="-17.9854974%" y2="43.5845307%" id="A"><stop stop-color="#afe8fa" stop-opacity=".188" offset="0%"/><stop stop-color="#afe8fa" stop-opacity="0" offset="100%"/></linearGradient><linearGradient x1="85.7686148%" y1="13.2995009%" x2="11.9819236%" y2="100%" id="B"><stop stop-color="#afe8fa" stop-opacity=".087" offset="0%"/><stop stop-color="#afe8fa" stop-opacity=".026" offset="100%"/></linearGradient><ellipse id="C" cx="246.791" cy="229.169" rx="20.86" ry="36.055"/><filter x="-36.0%" y="-16.6%" width="157.5%" height="133.3%" id="D"><feOffset dx="-3" in="SourceAlpha"/><feGaussianBlur stdDeviation="3.5"/><feColorMatrix values="0 0 0 0 0.192156863 0 0 0 0 0.443137255 0 0 0 0 0.737254902 0 0 0 0.1 0"/></filter><path d="M33.232 40.523c-1.215-.692-1.223-1.824 0-2.533 1.376-.686 2.994-.686 4.37 0 .553.24.91.783.913 1.385l.098.05.432.252c.1.05.082.138 0 .187L36.6 41.29a.39.39 0 0 1-.342 0l-.408-.228h-.05c-.877.08-1.76-.098-2.536-.513m7.232-2.89l15.744-9.138.66.375-15.744 9.147-.66-.383m-3.05-1.76L55.384 25.48l1.28.74-17.937 10.417-1.288-.74m25.6-12.633c-.62-.367-.628-.945 0-1.303l3.45-2.004c.7-.36 1.548-.36 2.258 0a.69.69 0 0 1 0 1.303L65.3 23.264a2.49 2.49 0 0 1-2.25 0m11.048-3.323l-5.348-3.08c-1.28-.657-2.797-.657-4.077 0L28.577 37.81c-1.11.643-1.11 1.694 0 2.338l5.348 3.08a4.43 4.43 0 0 0 4.077 0L74.088 22.28c1.11-.643 1.11-1.686 0-2.338" id="E"/><filter x="-14.8%" y="-18.3%" width="129.7%" height="151.2%" id="F"><feOffset dy="2" in="SourceAlpha"/><feGaussianBlur stdDeviation="2"/><feColorMatrix values="0 0 0 0 0.192156863 0 0 0 0 0.443137255 0 0 0 0 0.737254902 0 0 0 0.2 0"/></filter><path d="M6.074 24.893c-1.215-.7-1.223-1.833 0-2.533 1.375-.7 3.003-.7 4.378 0 .554.232.912.776.905 1.376l.106.057.44.252c.04.012.07.05.07.094s-.028.08-.07.094L9.457 25.66c-.1.057-.24.057-.35 0l-.408-.22h-.05a4.58 4.58 0 0 1-2.536-.513m7.232-2.89L29.1 12.888l.652.383-15.785 9.073-.652-.375m-3.057-1.76L28.185 9.793l1.28.733L11.528 20.95l-1.28-.74M35.874 7.56a.7.7 0 0 1 0-1.311l3.45-1.995c.7-.36 1.548-.36 2.258 0 .277.095.464.355.464.648s-.186.553-.464.648l-3.45 2.004a2.49 2.49 0 0 1-2.25 0m11.056-3.315L41.58 1.15a4.44 4.44 0 0 0-4.028 0L1.45 22.108c-1.11.643-1.1 1.686 0 2.33L6.8 27.524c1.268.643 2.768.643 4.036 0L46.938 6.575c1.11-.643 1.11-1.694 0-2.338" id="G"/><path d="M6.392 27.774c-1.353-.814-1.362-2.044 0-2.826 1.536-.783 3.356-.783 4.892 0a1.63 1.63 0 0 1 1.011 1.539l.106.057.497.277c.106.057.114.155 0 .22l-2.74 1.588c-.12.06-.263.06-.383 0l-.448-.252a5.15 5.15 0 0 1-2.829-.578m8.063-3.258l17.546-10.18.726.415-17.546 10.19-.726-.424m-3.4-1.955L31.17 10.97l1.427.814L12.59 23.4l-1.427-.814M41.68 1.222c1.28-.657 2.797-.657 4.077 0h0l6.425 3.706-.008.008c1.11.643 1.117 1.686 0 2.33h0l-40.676 23.62c-1.28.657-2.797.657-4.077 0h0L.995 27.18c-1.1-.643-1.11-1.694 0-2.338h0z" id="H"/><filter x="-10.4%" y="-11.4%" width="120.8%" height="145.7%" id="I"><feOffset dy="5" in="SourceAlpha"/><feGaussianBlur stdDeviation="1"/><feColorMatrix values="0 0 0 0 0.192156863 0 0 0 0 0.443137255 0 0 0 0 0.737254902 0 0 0 0.2 0"/></filter><path d="M33.23 76.534V75.32l8.434 4.87v1.204l-8.434-4.86m-25.365-12.3c-.125-.074-.23-.18-.3-.308a.84.84 0 0 1-.118-.407v-4.896a.29.29 0 0 1 .118-.271c.09-.056.2-.056.3 0L27.63 69.756c.243.16.394.425.408.715v4.905c.003.103-.045.2-.127.262a.29.29 0 0 1-.29 0l-9.893-5.7-9.874-5.7m-.4-11.25v-.968l19.178 11.06v.968L7.456 52.986m1.812-2.253c-.914-.6-1.487-1.584-1.54-2.67 0-.977.688-1.376 1.55-.905h0a3.35 3.35 0 0 1 1.531 2.661c0 .977-.698 1.376-1.54.905h0m5.11 2.94c-.91-.59-1.48-1.58-1.54-2.66 0-.986.698-1.376 1.55-.905h0a3.41 3.41 0 0 1 1.54 2.67c0 .977-.698 1.367-1.55.905h0m5.118 2.95c-.912-.587-1.486-1.578-1.54-2.66 0-.977.688-1.376 1.55-.905h0a3.41 3.41 0 0 1 1.531 2.67c0 .977-.698 1.367-1.55.905h0m5.11 2.95c-.9-.588-1.48-1.58-1.53-2.66 0-.977.698-1.376 1.54-.905h0c.91.592 1.484 1.585 1.54 2.67 0 .977-.698 1.367-1.55.905h0M7.447 40.3v-.96l45.295 26.118v.96L7.447 40.3m5.762-2.127v-.47l.815.462v-.905l.426.235v.905l.815.47v.48l-.815-.47v.905l-.417-.244v-.905l-.815-.47m8.153 6.335v-3.294l2.002 1.158v3.294l-2.002-1.158m2.9 1.674v-3.276l2.01 1.158v3.294l-1.893-1.195m2.908 1.674v-3.294l2.002 1.158v3.294l-2.002-1.158m2.9 1.674v-3.258l2.01 1.158v3.276l-2.01-1.158m4.357 2.516v-3.294l2.01 1.158v3.294l-2.01-1.158m2.917 1.674v-3.285l1.993 1.15v3.294L37.468 53.7m2.9 1.674V52.1l2.01 1.158v3.285l-2.01-1.158m4.357 2.516v-3.285l2.01 1.158v3.285l-2.01-1.14m2.908 1.674v-3.285l2.002 1.158v3.285l-2.002-1.158m2.9 1.674v-3.285l2.01 1.158v3.303l-2.01-1.158M15.97 38.66v-.516h.562l.326.2v3.122l-.49-.28v-2.452l-.4-.045m-6.56-5.195h.09a3.76 3.76 0 0 1 1.196 1.167h0a4.76 4.76 0 0 1 .444.851h0c.115.276.197.565.245.86v.1c.005.072.005.145 0 .217v.127a1.88 1.88 0 0 1-.1.624 1.41 1.41 0 0 1-.181.371h0a.96.96 0 0 1-.842.38h-.562l-.09-.045-.09-.063h-.045c-.015-.004-.03-.004-.045 0h-.054c-.024-.01-.046-.025-.063-.045h0c-.668-.555-1.16-1.3-1.422-2.118v-.226c-.057-.243-.087-.492-.09-.742v-.253c.016-.152.052-.3.11-.443h0l.054-.136v-.127a1.54 1.54 0 0 1 .172-.172.77.77 0 0 1 .254-.145h0l.2-.054a1.46 1.46 0 0 1 .906.199h0M7.682 14.633V10.58l12.683 7.312v4.054L7.682 14.633M48.357 44.58c-1.35-.84-2.465-2.01-3.234-3.403a9.17 9.17 0 0 1-1.332-4.525c-.12-1.153.396-2.28 1.35-2.94 1.063-.487 2.307-.362 3.252.326a9.39 9.39 0 0 1 3.243 3.421 9.19 9.19 0 0 1 1.323 4.525 3.21 3.21 0 0 1-1.35 2.959 3.29 3.29 0 0 1-3.252-.344m9.965-11.484L2.364.842C1.26.208.362.715.362 1.982L.18 64.516a4.39 4.39 0 0 0 1.993 3.448l55.95 32.27c1.105.633 2.01.127 2.01-1.14l.18-62.534a4.39 4.39 0 0 0-1.993-3.448" id="J"/><filter x="-11.6%" y="-17.0%" width="146.6%" height="128.0%" id="K"><feOffset dx="7" dy="-3" in="SourceAlpha"/><feGaussianBlur stdDeviation="3.5"/><feColorMatrix values="0 0 0 0 0.192156863 0 0 0 0 0.443137255 0 0 0 0 0.737254902 0 0 0 0.15 0"/></filter><path id="L" d="M434.138 272.354a1.4 1.4 0 0 1-1.398 1.397 1.4 1.4 0 0 1-1.398-1.397 1.4 1.4 0 0 1 1.398-1.397 1.4 1.4 0 0 1 1.398 1.397"/><path id="M" d="M442.783 286.743a1.4 1.4 0 0 1-1.398 1.397 1.4 1.4 0 0 1-1.398-1.397 1.4 1.4 0 0 1 1.398-1.397c.773 0 1.398.625 1.398 1.397"/><path id="N" d="M480.247 286.743a1.4 1.4 0 0 1-1.398 1.397 1.4 1.4 0 0 1-1.398-1.397c0-.772.626-1.397 1.398-1.397a1.4 1.4 0 0 1 1.398 1.397"/><path id="O" d="M442.783 347.175c0 .772-.626 1.397-1.398 1.397a1.4 1.4 0 0 1-1.398-1.397 1.4 1.4 0 0 1 1.398-1.397 1.4 1.4 0 0 1 1.398 1.397"/><path id="P" d="M480.247 347.175a1.4 1.4 0 0 1-1.398 1.397c-.773 0-1.398-.625-1.398-1.397a1.4 1.4 0 0 1 1.398-1.397 1.4 1.4 0 0 1 1.398 1.397"/><path id="Q" d="M251.59 217.23l-1.848-1.068-13.444 7.8 1.848 1.068 13.444-7.8"/><path id="R" d="M169.536 156.102c.118 1.023 1.332 5.43 1.07 6.932s-4.42 4.036-4.42 4.036l-.58-2.588 2.3-2.253-.625-4.28 2.247-1.846z"/><path id="S" d="M26.407 44.054l-2.01-1.158-.01 3.294 2.01 1.158.01-3.294"/></defs><g fill="none" fill-rule="evenodd"><path d="M265.66 94.543C62.905 172.895-180.455 329.33 199.79 407.67c124.74 10.514 236.623-98.796 280.39-201.93C550.775.56 405.455 38.094 265.66 94.543" fill="url(#A)"/><path d="M590.9 170.252C533.047 79.66 438.77-18.502 330.68 2.996c-95.023 33.237-61.605 203.846-13.512 305.61C416.76 519.346 737.186 399.3 590.9 170.252" fill="url(#B)"/><g transform="translate(58 1)"><g fill="#3cd8fb"><use xlink:href="#L"/><use xlink:href="#L" x="18.732"/><use xlink:href="#L" x="37.462"/><use xlink:href="#L" x="56.194"/><use xlink:href="#L" x="74.925"/><use xlink:href="#L" x="93.657"/><use xlink:href="#L" x="112.389"/><use xlink:href="#M"/><use xlink:href="#M" x="18.731"/><use xlink:href="#N"/><use xlink:href="#N" x="18.731"/><use xlink:href="#N" x="37.463"/><use xlink:href="#L" x="102.302" y="14.389"/><use xlink:href="#L" x="121.034" y="14.389"/><use xlink:href="#L" y="30.216"/><use xlink:href="#L" x="18.732" y="30.216"/><use xlink:href="#M" x="28.817" y="15.827"/><use xlink:href="#M" x="47.549" y="15.827"/><use xlink:href="#M" x="66.28" y="15.827"/><use xlink:href="#N" x="47.548" y="15.827"/><use xlink:href="#N" x="66.28" y="15.827"/><use xlink:href="#L" x="8.645" y="44.606"/><use xlink:href="#L" x="27.376" y="44.606"/><use xlink:href="#L" x="46.109" y="44.606"/><use xlink:href="#L" x="64.84" y="44.606"/><use xlink:href="#L" x="83.572" y="44.606"/><use xlink:href="#L" x="102.302" y="44.606"/><use xlink:href="#L" x="121.034" y="44.606"/><use xlink:href="#L" y="60.432"/><use xlink:href="#L" x="18.732" y="60.432"/><use xlink:href="#L" x="37.462" y="60.432"/><use xlink:href="#L" x="56.194" y="60.432"/><use xlink:href="#L" x="74.925" y="60.432"/><use xlink:href="#L" x="93.657" y="60.432"/><use xlink:href="#L" x="112.389" y="60.432"/><use xlink:href="#O"/><use xlink:href="#O" x="18.731"/><use xlink:href="#P"/><use xlink:href="#P" x="18.731"/><use xlink:href="#P" x="37.463"/><use xlink:href="#L" x="102.302" y="74.821"/><use xlink:href="#L" x="121.034" y="74.821"/><use xlink:href="#L" y="90.648"/><use xlink:href="#L" x="18.732" y="90.648"/><use xlink:href="#O" x="28.817" y="15.827"/><use xlink:href="#O" x="47.549" y="15.827"/><use xlink:href="#O" x="66.28" y="15.827"/><use xlink:href="#P" x="47.548" y="15.827"/><use xlink:href="#P" x="66.28" y="15.827"/><use xlink:href="#L" x="8.645" y="105.036"/><use xlink:href="#L" x="27.376" y="105.036"/><use xlink:href="#L" x="46.109" y="105.036"/><use xlink:href="#L" x="64.84" y="105.036"/><use xlink:href="#L" x="83.572" y="105.036"/><use xlink:href="#L" x="102.302" y="105.036"/><use xlink:href="#L" x="121.034" y="105.036"/></g><g fill="#aee9fc"><use xlink:href="#L" x="-238" y="-250"/><use xlink:href="#L" x="-219.268" y="-250"/><use xlink:href="#L" x="-200.538" y="-250"/><use xlink:href="#L" x="-181.806" y="-250"/><use xlink:href="#L" x="-163.075" y="-250"/><use xlink:href="#L" x="-144.343" y="-250"/><use xlink:href="#L" x="-125.611" y="-250"/><use xlink:href="#M" x="-238" y="-250"/><use xlink:href="#M" x="-219.269" y="-250"/><use xlink:href="#N" x="-238" y="-250"/><use xlink:href="#N" x="-219.269" y="-250"/><use xlink:href="#N" x="-200.537" y="-250"/><use xlink:href="#L" x="-135.698" y="-235.611"/><use xlink:href="#L" x="-116.966" y="-235.611"/><use xlink:href="#L" x="-238" y="-219.784"/><use xlink:href="#L" x="-219.268" y="-219.784"/><use xlink:href="#M" x="-209.183" y="-234.173"/><use xlink:href="#M" x="-190.451" y="-234.173"/><use xlink:href="#M" x="-171.72" y="-234.173"/><use xlink:href="#N" x="-190.452" y="-234.173"/><use xlink:href="#N" x="-171.72" y="-234.173"/><use xlink:href="#L" x="-229.355" y="-205.394"/><use xlink:href="#L" x="-210.624" y="-205.394"/><use xlink:href="#L" x="-191.891" y="-205.394"/><use xlink:href="#L" x="-173.16" y="-205.394"/><use xlink:href="#L" x="-154.428" y="-205.394"/><use xlink:href="#L" x="-135.698" y="-205.394"/><use xlink:href="#L" x="-116.966" y="-205.394"/><use xlink:href="#L" x="-238" y="-189.568"/><use xlink:href="#L" x="-219.268" y="-189.568"/><use xlink:href="#L" x="-200.538" y="-189.568"/><use xlink:href="#L" x="-181.806" y="-189.568"/><use xlink:href="#L" x="-163.075" y="-189.568"/><use xlink:href="#L" x="-144.343" y="-189.568"/><use xlink:href="#L" x="-125.611" y="-189.568"/><use xlink:href="#O" x="-238" y="-250"/><use xlink:href="#O" x="-219.269" y="-250"/><use xlink:href="#P" x="-238" y="-250"/><use xlink:href="#P" x="-219.269" y="-250"/><use xlink:href="#P" x="-200.537" y="-250"/><use xlink:href="#L" x="-135.698" y="-175.179"/><use xlink:href="#L" x="-116.966" y="-175.179"/><use xlink:href="#L" x="-238" y="-159.352"/><use xlink:href="#L" x="-219.268" y="-159.352"/><use xlink:href="#O" x="-209.183" y="-234.173"/><use xlink:href="#O" x="-190.451" y="-234.173"/><use xlink:href="#O" x="-171.72" y="-234.173"/><use xlink:href="#P" x="-190.452" y="-234.173"/><use xlink:href="#P" x="-171.72" y="-234.173"/><use xlink:href="#L" x="-229.355" y="-144.964"/><use xlink:href="#L" x="-210.624" y="-144.964"/><use xlink:href="#L" x="-191.891" y="-144.964"/><use xlink:href="#L" x="-173.16" y="-144.964"/><use xlink:href="#L" x="-154.428" y="-144.964"/><use xlink:href="#L" x="-135.698" y="-144.964"/><use xlink:href="#L" x="-116.966" y="-144.964"/></g><g transform="translate(.341 .957)" fill-rule="nonzero"><g fill="#e5f0f9"><path d="M247.548 296.706l-58.784-34.01c-.723-.422-1.167-1.195-1.167-2.032s.444-1.6 1.167-2.032l63.142-36.398a1.51 1.51 0 0 0 0-2.615l-31.018-17.63.453-.787 30.982 17.63c.75.428 1.215 1.226 1.215 2.1s-.464 1.662-1.215 2.1L189.18 259.42a1.44 1.44 0 0 0 0 2.489L248 295.928l-.453.778z"/><path d="M276.148 237.24c-.077-.003-.15-.025-.217-.063l-26.733-14.905c-.76-.434-1.227-1.24-1.227-2.113s.468-1.68 1.227-2.113l37.27-21.72a1.5 1.5 0 0 0 .761-1.33c.006-.55-.294-1.06-.78-1.32l-44.37-24.715v-6.2l-2.156-1.113c-.223-.115-.3-.388-.195-.61s.39-.3.61-.195l2.645 1.376v6.2l43.882 24.49a2.38 2.38 0 0 1 1.214 2.109c.013.874-.448 1.688-1.205 2.127l-37.278 21.72a1.52 1.52 0 0 0-.761 1.33c.004.55.3 1.057.78 1.33l26.733 14.905a.46.46 0 0 1 .172.615.48.48 0 0 1-.371.19z"/></g><g transform="matrix(.002793 -.999996 .999996 .002793 16.933569 475.318319)"><use fill="#000" filter="url(#D)" xlink:href="#C"/><use fill="#fafbff" xlink:href="#C"/></g><g class="F"><path d="M282.86 218.597v11.068c0 4.914-3.008 9.828-9.005 13.738v-11.068c5.988-3.9 8.987-8.824 9.005-13.738"/><path d="M273.856 232.334v11.068l-1.468.905c-3.89 2.193-8.09 3.782-12.456 4.715v-11.068a43.8 43.8 0 0 0 12.447-4.715c.516-.3 1.006-.597 1.477-.905"/><path d="M259.933 237.954v11.068c-8.82 1.92-17.957 1.862-26.75-.172v-11.068c8.795 2.034 17.93 2.093 26.75.172"/><path d="M233.18 237.782v11.068a43.89 43.89 0 0 1-11.777-4.525l-1.984-1.23v-11.068l1.975 1.24c3.687 2.067 7.654 3.59 11.777 4.525"/><path d="M219.42 232.01v11.068c-5.79-3.92-8.68-8.77-8.66-13.62V218.39c0 4.85 2.88 9.7 8.67 13.62"/></g><ellipse fill="#fafbff" transform="matrix(.002793 -.999996 .999996 .002793 225.484629 255.049491)" cx="36.62" cy="21.204" rx="20.86" ry="36.055"/><path d="M270.35 205.23c-13.1-7.557-34.27-7.557-47.28 0s-12.9 19.8.154 27.348 34.27 7.557 47.288 0 12.936-19.8-.163-27.357" class="B"/><path d="M236.297 223.964l13.444-7.8 1.812 1.068-13.444 7.8-1.812-1.068m3.705 2.136l13.444-7.8 1.812 1.068-13.38 7.783-1.812-1.068m22.376-6.76l-12.41-7.122a1.48 1.48 0 0 0-1.35 0l-19.595 11.376c-.37.217-.38.56 0 .778l12.366 7.14c.427.218.932.218 1.36 0l8.153-4.733 2.872 1.656c.553.317 1.495.145 1.63-.3l1.404-4.796 5.526-3.204c.168-.058.28-.216.28-.394s-.113-.336-.28-.394" fill="#47d7f8"/><g class="B"><use xlink:href="#Q"/><use xlink:href="#Q" x="3.704" y="2.137"/></g><path d="M263.855 214.778l-13.824-7.973c-.528-.262-1.148-.262-1.676 0l-20.13 11.692c-.203.075-.338.268-.338.484s.135.4.338.484l2.337 1.348 18.86-10.95 12.438 7.032 1.984-1.158c.205-.07.343-.263.343-.48s-.138-.4-.343-.48" fill="#afe8fa"/><g class="F"><path d="M283.55 143.42v5.747c0 1.8-1.096 3.557-3.26 4.977v-5.756c2.165-1.42 3.252-3.195 3.26-4.968m-3.3 4.996v5.756l-.534.326v-5.756l.534-.326m-275.667.3v5.756l-.725-.443v-5.756l.716.443"/><path d="M3.877 148.27v5.756c-2.093-1.42-3.134-3.176-3.134-4.932v-5.747c0 1.747 1.042 3.502 3.134 4.923m275.85.444l-.018 5.756-127.932 74.27.018-5.756zm-146.358 74.272l-.018 5.756L4.575 154.47l.018-5.756z"/></g><path d="M279.672 138.054c5.11 2.94 5.137 7.7.054 10.66l-127.932 74.27c-5.073 2.94-13.317 2.94-18.426 0L4.593 148.714c-5.11-2.95-5.136-7.72-.063-10.66l127.932-74.27c5.082-2.95 13.326-2.95 18.435 0l128.775 74.27z" fill="#fdfeff"/><g class="F"><path d="M151.794 222.986v5.756a16.02 16.02 0 0 1-4.53 1.701v-5.756c1.59-.33 3.117-.904 4.53-1.7"/><path d="M147.292 224.687v5.756a21.92 21.92 0 0 1-9.666-.063v-5.747c3.178.733 6.48.752 9.666.054"/><path d="M137.626 224.633v5.747a15.89 15.89 0 0 1-4.258-1.638v-5.756a16.09 16.09 0 0 0 4.258 1.647"/></g><g transform="translate(20 110)"><path d="M4.077 33.792v5.18C1.843 37.685.726 36 .717 34.314v-5.18c0 1.686 1.125 3.372 3.36 4.66" fill="#c5d3e9"/><path fill="#c6d4e9" d="M49.685 60.1l-.016 5.18L4.06 38.972l.016-5.18z"/><path d="M151.77 60.223v.13-.13" fill="#cbd8eb"/><path d="M151.77 60.353v5.18c-.004.22-.028.437-.073.652v-5.18c.04-.215.066-.433.073-.652" fill="#ccd9ec"/><path d="M151.698 61.005v5.18c-.044.22-.103.434-.18.643v-5.18a3.62 3.62 0 0 0 .188-.643" fill="#cedbec"/><path d="M151.5 61.648v5.18c-.085.223-.19.438-.3.643v-5.18c.12-.206.22-.42.302-.643" fill="#d0dced"/><path d="M151.208 62.29v5.18c-.13.237-.28.463-.448.676v-5.18a4.48 4.48 0 0 0 .457-.676" fill="#d2deee"/><path d="M150.752 62.967v5.18a6.12 6.12 0 0 1-.709.757v-5.18a6.04 6.04 0 0 0 .701-.757" fill="#d4dfee"/><path d="M150.018 63.725v5.18c-.436.403-.915.758-1.427 1.06v-5.18c.512-.3 1-.656 1.427-1.06" fill="#d6e1ef"/><path fill="#d8e2f0" d="M148.624 64.784v5.18l-.155.098v-5.18l.155-.098"/><g fill="#dde6f2"><path d="M148.47 64.88l-.016 5.172L129.92 80.82l.008-5.18z"/><path d="M129.93 75.64l-.008 5.18-18.54 10.76.016-5.18z"/></g><path fill="#c6d4e9" d="M95.286 86.4l-.016 5.18-45.6-26.3.016-5.18z"/><path d="M111.397 86.4v5.18a12.76 12.76 0 0 1-2.536 1.108v-5.18a12.76 12.76 0 0 0 2.536-1.108" fill="#d8e2f0"/><path d="M108.86 87.507v5.18c-.69.22-1.397.396-2.112.52v-5.18c.715-.126 1.42-.3 2.112-.52" fill="#d6e1ef"/><path d="M106.75 88.028v5.18l-1.46.204v-5.18l1.46-.204" fill="#d4dfee"/><path d="M105.3 88.232v5.18l-1.264.08v-5.18c.424 0 .815-.04 1.264-.08" fill="#d2deee"/><path fill="#d0dced" d="M104.027 88.313v5.18h-1.166v-5.18h1.166"/><path d="M102.86 88.32v5.18c-.375 0-.75 0-1.125-.065v-5.172c.375 0 .75.05 1.125.057" fill="#cedbec"/><path d="M101.735 88.264v5.172c-.375 0-.742-.065-1.11-.122v-5.18l1.11.13" fill="#ccd9ec"/><path d="M100.627 88.134v5.18l-1.125-.195v-5.172l1.125.187" fill="#cbd8eb"/><path d="M99.47 87.963v5.172l-1.2-.285v-5.18l1.2.293" fill="#c9d6ea"/><path d="M98.31 87.653v5.18l-1.37-.464v-5.18l1.37.464" fill="#c7d5e9"/><path d="M96.94 87.19v5.18a11.81 11.81 0 0 1-1.631-.814v-5.18c.523.31 1.068.583 1.63.814" fill="#c5d3e9"/><path d="M148.388 55.555c2.234 1.287 3.35 2.98 3.36 4.667s-1.084 3.372-3.302 4.66L111.372 86.4c-5.06 2.574-11.05 2.574-16.11 0L4.077 33.792c-2.234-1.287-3.35-2.973-3.36-4.66s1.093-3.38 3.26-4.66L41.092 2.948c5.06-2.574 11.05-2.574 16.11 0l91.185 52.607z" fill="#e5edf5"/><path d="M21.11 18.375c-.115-.05-.193-.16-.204-.285.012-.123.1-.23.204-.277l3.14-1.824 3.147-1.833a1.06 1.06 0 0 1 .489-.114c.17-.001.337.038.49.114.11.055.187.162.204.285a.35.35 0 0 1-.196.285l-3.106 1.824-3.147 1.824a.97.97 0 0 1-.489.122c-.17-.005-.337-.047-.49-.122m9.19-5.343c-.285-.163-.277-.424 0-.586a1.11 1.11 0 0 1 1.011 0 .3.3 0 0 1 .217.289.3.3 0 0 1-.217.289 1.12 1.12 0 0 1-1.003 0m8.267-5.392l5.96-3.453c2.718-1.39 5.94-1.39 8.66 0l92.245 53.202c1.013.448 1.705 1.407 1.8 2.51a3.03 3.03 0 0 1-1.777 2.509l-18.866 10.947L107.8 84.3c-2.723 1.384-5.944 1.384-8.667 0L6.898 31.09c-1.013-.448-1.705-1.407-1.8-2.51a3.02 3.02 0 0 1 1.777-2.517l2.992-1.735 3-1.743.277.155.277.163c.916.49 1.944.738 2.984.717 1.04.02 2.065-.224 2.984-.71l9.898-5.75 9.898-5.758c.737-.256 1.232-.95 1.232-1.73s-.494-1.474-1.232-1.73l-.554-.326m109.766 47.51L57.12 2.51a17.76 17.76 0 0 0-16.103 0L3.97 24.027C1.753 25.314.66 27 .71 28.686s1.125 3.372 3.36 4.667l91.2 52.607a17.84 17.84 0 0 0 16.111 0l18.54-10.76 18.46-10.767c2.2-1.28 3.318-2.973 3.302-4.66s-1.125-3.364-3.36-4.65" fill="#f2f7fa"/><path d="M145.493 57.38L53.248 4.178c-2.718-1.39-5.94-1.39-8.66 0l-3.01 1.735-2.992 1.735.554.326c.737.256 1.232.95 1.232 1.73s-.494 1.474-1.232 1.73L19.347 22.928c-.92.485-1.945.728-2.984.71-1.04.02-2.068-.226-2.984-.717l-.277-.163-.277-.155-5.96 3.462a3.02 3.02 0 0 0-1.777 2.5c.105 1.1.797 2.06 1.8 2.51L52.996 57.7 99.1 84.3c2.723 1.384 5.944 1.384 8.667 0l37.725-21.9a3.03 3.03 0 0 0 1.777-2.509c-.105-1.1-.797-2.06-1.8-2.51" class="B"/><path d="M28.373 14.156a1.08 1.08 0 0 0-.49-.114 1.06 1.06 0 0 0-.489.114l-3.147 1.833-3.14 1.824c-.114.048-.192.154-.204.277.01.125.1.235.204.285.152.076.32.117.5.122a.97.97 0 0 0 .489-.122l3.188-1.824 3.147-1.824a.35.35 0 0 0 .196-.285c-.017-.123-.093-.23-.204-.285m2.937-1.704a1.11 1.11 0 0 0-1.011 0c-.277.163-.285.424 0 .586a1.12 1.12 0 0 0 1.003 0 .3.3 0 0 0 .217-.289.3.3 0 0 0-.217-.289" fill="#d5dbe1"/><g transform="translate(36.225 21.532)"><use fill="#000" filter="url(#F)" xlink:href="#E"/><use xlink:href="#E" class="B"/><path d="M56.648 26.196l-1.28-.74-17.953 10.417 1.28.74 17.953-10.417m.22 2.672l-.66-.375-15.744 9.138.66.383 15.744-9.147" class="N"/><path d="M68.74 19.917c-.7-.36-1.548-.36-2.258 0l-3.45 2.004c-.62.358-.61.937 0 1.303a2.49 2.49 0 0 0 2.25 0l3.45-2.004a.69.69 0 0 0 0-1.303" class="O"/><path d="M33.893 39.554c-.563-.326-.57-.814 0-1.165a2.26 2.26 0 0 1 2.046 0h0c.554.326.58.814 0 1.173-.636.33-1.394.33-2.03 0h0M37.586 38c-1.376-.686-2.994-.686-4.37 0-1.215.71-1.207 1.84 0 2.533.777.415 1.658.594 2.536.513a.87.87 0 0 1-.505-1.002h.057a2.3 2.3 0 0 0 .987-.285.92.92 0 0 0 .465-.627c.6-.086 1.193-.002 1.737.244-.002-.602-.36-1.145-.913-1.385" class="P"/><path d="M39.053 39.684h0l-.432-.252-.098-.05a1.63 1.63 0 0 1-.889 1.148 4.25 4.25 0 0 1-1.851.513h.05l.408.228a.39.39 0 0 0 .342 0l2.446-1.425c.1-.05.098-.138 0-.187" class="B"/><path d="M38.507 39.374a3.12 3.12 0 0 0-1.737-.244.92.92 0 0 1-.465.627 2.3 2.3 0 0 1-.987.285h-.057a.87.87 0 0 0 .505 1.002 4.25 4.25 0 0 0 1.851-.513 1.63 1.63 0 0 0 .889-1.148m-2.56-1.003h0a2.26 2.26 0 0 0-2.046 0c-.546.318-.538.814 0 1.165h0c.636.33 1.394.33 2.03 0 .554-.326.53-.814 0-1.173" class="Q"/><use fill="#000" filter="url(#F)" xlink:href="#G"/><use xlink:href="#G" class="B"/><path d="M29.5 10.526l-1.28-.733L10.256 20.2l1.28.74L29.5 10.526m.202 2.68l-.652-.375-15.744 9.138.652.375 15.744-9.138" class="N"/><path d="M41.58 4.254c-.7-.36-1.548-.36-2.258 0l-3.45 1.995a.7.7 0 0 0 0 1.311 2.49 2.49 0 0 0 2.25 0l3.45-2.004c.277-.095.464-.355.464-.648s-.186-.553-.464-.648" class="O"/><path d="M6.75 23.89a.62.62 0 0 1 0-1.165 2.27 2.27 0 0 1 2.046 0h0c.563.326.57.814 0 1.173a2.27 2.27 0 0 1-2.038 0h0m3.685-1.564c-1.375-.7-3.003-.7-4.378 0-1.207.7-1.2 1.833 0 2.533a4.58 4.58 0 0 0 2.536.513.89.89 0 0 1-.505-1.01h.05a2.23 2.23 0 0 0 .995-.285.89.89 0 0 0 .465-.619 3.14 3.14 0 0 1 1.728.236c.007-.6-.35-1.144-.905-1.376" class="P"/><path d="M11.88 24.022h0l-.44-.252-.106-.057a1.63 1.63 0 0 1-.881 1.181c-.566.31-1.197.487-1.843.513h.05l.408.22c.1.057.24.057.35 0l2.446-1.425c.04-.012.07-.05.07-.094s-.028-.08-.07-.094" class="B"/><path d="M11.34 23.704a3.14 3.14 0 0 0-1.728-.236.89.89 0 0 1-.465.619 2.23 2.23 0 0 1-.995.285h-.05a.89.89 0 0 0 .505 1.01c.646-.027 1.276-.202 1.843-.513a1.63 1.63 0 0 0 .889-1.157m-2.55-.994h0a2.27 2.27 0 0 0-2.046 0 .62.62 0 0 0 0 1.165h0a2.27 2.27 0 0 0 2.038 0c.546-.334.538-.814 0-1.173" class="Q"/></g><g transform="translate(47.288 26.063)"><use fill="#000" filter="url(#I)" xlink:href="#H"/><use xlink:href="#H" class="B"/><path d="M32.5 11.802l-1.427-.823-20.008 11.614 1.427.823L32.5 11.802m.227 2.98L32 14.367l-17.554 10.18.734.424 17.546-10.2" class="N"/><path d="M45.96 4.805a2.74 2.74 0 0 0-2.503 0l-3.848 2.232c-.31.106-.52.397-.52.725s.21.62.52.725c.79.4 1.722.4 2.51 0l3.84-2.232c.31-.106.52-.397.52-.725s-.21-.62-.52-.725" class="O"/><path d="M7.15 26.7a.69.69 0 0 1 0-1.303c.715-.363 1.56-.363 2.275 0h0c.61.358.628.937 0 1.295a2.45 2.45 0 0 1-2.258 0h0m4.077-1.743c-1.536-.783-3.356-.783-4.892 0-1.345.814-1.337 2.044 0 2.826a5.15 5.15 0 0 0 2.829.578c-.436-.19-.673-.663-.563-1.124h.057c.383-.024.756-.133 1.093-.318a.96.96 0 0 0 .522-.692c.657-.097 1.327-.003 1.932.27a1.63 1.63 0 0 0-1.011-1.539" class="P"/><path d="M12.866 26.83l-.497-.277-.106-.057a1.77 1.77 0 0 1-.987 1.279 4.79 4.79 0 0 1-2.055.578h0l.448.252c.12.06.263.06.383 0l2.74-1.588c.106-.065.098-.163 0-.22" class="B"/><path d="M12.23 26.495c-.605-.272-1.276-.365-1.932-.27a.96.96 0 0 1-.522.692c-.336.185-.7.294-1.093.318h-.057a.99.99 0 0 0 .563 1.124 4.79 4.79 0 0 0 2.055-.578 1.77 1.77 0 0 0 .987-1.279m-2.806-1.107h0a2.51 2.51 0 0 0-2.275 0 .69.69 0 0 0 0 1.303h0a2.45 2.45 0 0 0 2.258 0c.6-.358.595-.937 0-1.295" class="Q"/></g></g><g class="F"><path d="M108.555 86.877v5.756l-.344-.217V86.67l.344.208"/><path d="M108.2 86.67v5.747a2.94 2.94 0 0 1-1.513-2.38V84.28a2.95 2.95 0 0 0 1.513 2.389m72.674-.163v5.8c-.08 1.016-.676 1.92-1.576 2.398V88.95a2.97 2.97 0 0 0 1.567-2.398"/><path d="M179.306 88.904v5.756l-.254.163v-5.756l.254-.163"/><path d="M179.053 89.067l-.018 5.756-28.808 16.715.018-5.747zM141.34 105.8l-.018 5.747-32.785-18.905.018-5.756z"/></g><path d="M179.016 83.918c2.473 1.42 2.482 3.73 0 5.15l-28.808 16.724a9.84 9.84 0 0 1-8.905 0l-32.75-18.914c-2.464-1.42-2.482-3.73 0-5.15l28.808-16.724a9.84 9.84 0 0 1 8.905 0l32.75 18.914z" fill="#f4f9ff"/><g class="F"><path d="M150.244 105.79v5.756a7.68 7.68 0 0 1-2.174.814v-5.747c.76-.166 1.494-.443 2.174-.824"/><path d="M148.07 106.615v5.747a10.72 10.72 0 0 1-4.674 0v-5.756c1.54.348 3.136.348 4.674 0"/><path d="M143.396 106.58v5.756c-.718-.167-1.4-.432-2.056-.787v-5.756a7.76 7.76 0 0 0 2.056.787"/></g><path d="M126.546 44.425v-.706l5.96 3.44v.706l-5.943-3.43m-15.237-10.68v-.706l3.352 1.937 3.352 1.928v.706l-3.352-1.928-3.352-1.937M119 38.18v-.706l5.318 3.068 5.327 3.077v.724l-5.327-3.068-5.327-3.077m-9.06-7.104v-.706l1.558.905 1.55.905v.706L111.5 32l-1.558-.905m4.44 2.56v-.706l3.116 1.8v.715l-3.116-1.8m4.158 2.398v-.77l6.405 3.62v.706L118.53 36m8 4.615V39.9l3.026 1.73 2.98 1.72v.706l-2.98-1.692-2.98-1.7m-.063-1.946v-.697l3.787 2.2v.697l-1.893-1.077-1.902-1.095m-15.908-11.086v-.697l2.5 1.44v.706l-2.5-1.448m3.832 2.226v-.697l2.944 1.7 2.935 1.7v.706l-2.926-1.692-2.953-1.73m7.71 4.452v-.706l2.654 1.538 2.663 1.53v.697l-5.318-3.06m1.323-1.13v-.715l2.002 1.158 2.002 1.15v.715l-1.993-1.158-2.002-1.15M103.582 19.82v-.715l2.636 1.53 2.636 1.52v.706l-2.636-1.52-2.645-1.52m6.423 3.7v-.724l1.558.905 1.55.905v.724l-3.098-1.8m4.43 2.56v-.75l1.522.905 1.558.905v.706l-3.116-1.8m4.158 2.398v-.706l9.72 5.602v.706l-4.865-2.796-4.865-2.805m8.153 2.814v-.706l5.79 3.34v.706l-2.9-1.674-2.9-1.665m-2.718-3.484v-.706l4.276 2.462 4.267 2.47v.706l-8.552-4.932m1.504-1.023v-.688l5.98 3.448v.715l-2.98-1.73-3-1.72m-7.7-6.335v-.715l2.917 1.683 2.926 1.692v.706l-2.926-1.692-2.917-1.683m6.56 3.783v-.688l8.208 4.733v.697l-4.104-2.362-4.095-2.37m-5.852-5.276v-.697l8.642 4.986v.697l-8.642-4.986m10.454 6.036V24.3l5.87 3.385v.697l-5.88-3.385m-11.777-8.706v-.697l4.856 2.787v.697l-2.428-1.394-2.428-1.385m5.662 3.267v-.697l9.35 5.43v.706l-4.684-2.715-4.665-2.715m10.6 6.11v-.697l1.25.724 1.25.715v.706l-2.5-1.448m-1.36-2.715v-.706l1.93 1.113 1.902 1.14v.697l-1.94-1.113-1.93-1.113m5.807-.968L99.913.127a.3.3 0 0 0-.308 0c-.092.066-.14.177-.127.3V15.72l-.045 15.303c.02.307.18.587.435.76l37.948 21.89a.28.28 0 0 0 .444-.262V22.805c-.005-.153-.048-.303-.127-.434a.97.97 0 0 0-.308-.326" fill="#e5f0f9"/><path d="M127.37 15.24a1.07 1.07 0 0 1-.353-.371 1.02 1.02 0 0 1-.145-.48.3.3 0 0 1 .498-.281c.14.093.26.217.344.362s.14.316.145.49c.013.124-.043.245-.145.317-.105.065-.24.065-.344 0m7.818 2.67l-4.376-2.56-4.376-2.525-.516.96-.57.95 10.998 6.344-.562-1.602-.553-1.602" fill="#f0f9ff"/><path d="M127.37 14.1a.3.3 0 0 0-.498.281 1.02 1.02 0 0 0 .145.48 1.07 1.07 0 0 0 .353.371c.105.065.24.065.344 0 .102-.072.158-.193.145-.317a1 1 0 0 0-.127-.443c-.086-.145-.203-.27-.344-.362m8.534 10.387l-1.94-1.122-1.93-1.113v.697l1.93 1.122 1.93 1.113.01-.353v-.344m-3.38 7.52l-4.267-2.47L124 27.095v.353.353l8.552 4.932v-.706" class="D"/><path d="M131.474 29.51l-5.98-3.448v.715l3 1.72 2.98 1.73v-.715" class="E"/><path d="M132.543 33.92l-5.79-3.34v.353l-.01.353 2.9 1.665 2.9 1.674v-.706" class="D"/><path d="M127.452 34.76l-2.002-1.15-2.002-1.158v.715l1.993 1.15 2.002 1.158v-.362l.01-.353m2.835 5.44L126.5 38l-.01.353v.344l1.893 1.095 1.902 1.095V40.2" class="E"/><path d="M132.516 43.376l-5.952-3.44-.01.353v.353l5.96 3.44v-.706m-7.544-4.353l-3.198-1.846-3.207-1.846v.706l3.198 1.846 3.207 1.846v-.706" class="D"/><path d="M117.523 34.724l-3.116-1.792v.706l1.558.896 1.558.905v-.715" class="E"/><g class="D"><path d="M113.075 32.163l-3.098-1.792-.01.353v.353l1.558.905 1.55.887v-.706m19.432 14.995l-5.96-3.44v.706l2.98 1.72 2.97 1.72v-.353l.01-.353"/><path d="M129.654 43.62l-10.644-6.145-.01.353v.353l5.327 3.077 5.327 3.068v-.706"/></g><path d="M118.03 36.914l-3.352-1.928-3.352-1.937v.706l6.704 3.873v-.715" class="E"/><path d="M128.313 33.367l-9.72-5.61-.01.362v.353l9.72 5.602.01-.353v-.353" class="D"/><path d="M117.542 27.158l-1.558-.896-1.558-.905v.715l3.116 1.792v-.706" class="E"/><path d="M113.103 24.597l-1.55-.896-1.558-.896v.706l3.098 1.792v-.353l.01-.353m-4.24-2.443l-2.636-1.52-2.636-1.53v.362l-.01.353 5.28 3.04v-.706m18.582 14.507l-5.318-3.068v.706l2.654 1.53 2.663 1.53v-.697m-7.146-4.127l-2.935-1.683-2.944-1.7v.697l5.87 3.394v-.353l.01-.353" class="D"/><path d="M113.094 28.38l-1.25-.715-1.26-.724v.697l1.26.724 1.24.724v-.362l.01-.344" class="E"/><path d="M132.562 28.244l-8.208-4.733v.706l4.095 2.37 4.104 2.362v-.353l.01-.353m-8.925-5.14l-2.926-1.692-2.917-1.683v.715l2.917 1.674 2.926 1.692v-.706" class="D"/><path d="M134.835 27.665l-5.87-3.385-.01.353v.344l5.88 3.385v-.697" class="E"/><path d="M127.144 23.23l-8.642-4.986v.697l4.312 2.49 4.32 2.498.01-.344v-.353" class="D"/><path d="M135.913 26.39l-1.25-.715-1.25-.724v.344l-.01.353 1.26.724 1.25.724v-.706" class="E"/><path d="M132.163 24.226l-4.674-2.697-4.674-2.688v.697l9.35 5.394v-.706" class="D"/><path d="M122.008 18.37l-2.428-1.394-2.428-1.403v.697l2.428 1.403 2.42 1.394.01-.353v-.344" class="E"/><path d="M167.185 80.914l-13.417-7.747a3.37 3.37 0 0 0-3 0l-13.417 7.747c-.38.118-.637.468-.637.864s.258.747.637.864l13.417 7.738a3.3 3.3 0 0 0 2.999 0l13.417-7.738c.38-.118.637-.468.637-.864s-.258-.747-.637-.864h0zm-20.2 7.466l-4.72-2.715c-3.198-1.8-7.62-2.28-9.874-.986s-1.477 3.846 1.72 5.692l4.72 2.715c3.198 1.8 7.62 2.3 9.865.986s1.486-3.846-1.712-5.692z" style="mix-blend-mode:multiply" class="I H"/><path d="M137.046 65.864l13.417-7.738a3.3 3.3 0 0 1 2.999 0l13.426 7.738c.38.118.637.468.637.864s-.258.747-.637.864L153.46 75.33a3.3 3.3 0 0 1-2.999 0l-13.417-7.738c-.38-.118-.637-.468-.637-.864s.258-.747.637-.864h0z" fill="#dcedfd"/><path d="M151.966 58.67a2.24 2.24 0 0 1 1.042.235l13.417 7.738.127.08c-.038.033-.08.06-.127.08l-13.417 7.747a2.45 2.45 0 0 1-2.093 0L137.5 66.805c-.043-.02-.083-.048-.118-.08l.118-.08 13.417-7.738a2.26 2.26 0 0 1 1.051-.235h0zm0-.905a3.03 3.03 0 0 0-1.504.362l-13.417 7.738c-.38.118-.637.468-.637.864s.258.747.637.864l13.417 7.738a3.03 3.03 0 0 0 1.504.362c.52.012 1.037-.112 1.495-.362l13.417-7.738c.38-.118.637-.468.637-.864s-.258-.747-.637-.864l-13.417-7.738c-.458-.25-.973-.374-1.495-.362h0z" class="B"/><path d="M136.42 80.253a1.07 1.07 0 0 0 .625.905l13.417 7.738a3.02 3.02 0 0 0 1.504.362V75.683a3.1 3.1 0 0 1-1.504-.362l-13.417-7.738a1.06 1.06 0 0 1-.625-.905v13.575z" fill="#a5cbf7"/><path d="M167.502 80.253a1.06 1.06 0 0 1-.616.905l-13.426 7.738c-.458.25-.973.374-1.495.362V75.683c.52.01 1.036-.115 1.495-.362l13.426-7.738a1.06 1.06 0 0 0 .616-.905v13.575z" class="R"/><path d="M133.53 58.47a13.43 13.43 0 0 1 1.649-.109c.534.082 1.078.082 1.613 0 .58-.11 2.102-1.403 3.325-2.606a13.69 13.69 0 0 0 3.044-4.615c.58-1.8 1.422-5.584 1.812-6.85a2.09 2.09 0 0 1 1.812-1.683c.906-.18 1.513.154 1.132 2.036a36.86 36.86 0 0 1-2.364 7.846c-.886 1.754-2.055 3.35-3.46 4.724-1.22 1.17-2.58 2.186-4.05 3.023-.417.262-.67.56-1.413 1.158s-1.62 1.006-2.555 1.195c-.788.118-1.096 0-1.187-.118s0-.353.362-.443c.573-.105 1.123-.314 1.622-.615l-1.232.344c-.42.096-.848.136-1.277.118-.417 0-.734-.552-.38-.652s.66-.1 1.35-.253c.37-.088.73-.218 1.07-.39a9.55 9.55 0 0 1-1.422.136c-.385.034-.77-.052-1.105-.244-.18-.1-.263-.452.2-.525a7.09 7.09 0 0 0 1.721-.208c.562-.172.906-.37.824-.434s-.417.063-.906 0-.906-.452-.833-.715.154-.127.66-.118z" class="C"/><path d="M146.902 42.398c-.906-.18-1.694.643-2.13 1.955s-1.033 4.136-1.404 5.113c-.223.586-.4 1.192-.498 1.8a4.35 4.35 0 0 0 3.261.968 42.88 42.88 0 0 0 1.64-5.43c.516-2.47.797-4.1-.87-4.416z" class="J"/><path d="M144.438 51.7c-.56-.167-1.067-.48-1.468-.905l.082-.326s-.18 0-.462.76-.344 1.267-.217 1.44c.707 1.014 2.826 1.466 3.234.905.3-.39.97-1.475.76-1.973l-.136.362a4.18 4.18 0 0 1-1.794-.262h0z" class="G"/><path d="M139.093 82.597a8.47 8.47 0 0 0 .172.905 3.73 3.73 0 0 1 .136 1.448c-.072.344-1.042.824-1.576.905a3.35 3.35 0 0 0-1.676 1.032 3.11 3.11 0 0 1-2.346.905c-.752-.1-1.594-.262-1.812-.57s.063-.643 1.64-1.756 2.627-1.8 3.125-2.842l2.337-.027zm5.707 10.616a2.51 2.51 0 0 1-1.757.905c-.362.027-.725.027-1.087 0-.4 0-.978-.235-.906-.715a.78.78 0 0 1 .2-.398l1.812-2.398a7.66 7.66 0 0 0 1.495-3.249h2.355c0 .2.063.48.1.742s.1.516.163.778a2.12 2.12 0 0 1-.063 1.53c-.248.33-.555.608-.906.824a8.5 8.5 0 0 0-1.404 1.982h0z" fill="#937647"/><path d="M155.934 62.045c.906 5.33-1.884 6.887-4.53 8.896a42.03 42.03 0 0 1-4.203 2.814c.195 1.285.283 2.583.263 3.882 0 2.317-.59 9.837-.59 9.837-.74.382-1.617.382-2.355 0l-1.178-8.606c-.516-4.1-.978-5.937-.77-6.787s3.56-4.525 4.376-5.756l-7.555 4.38c.15 1.113.225 2.235.226 3.357l-.562 8.56a1.95 1.95 0 0 1-2.301 0l-2.373-13.9c0-1.7 6.912-6 8.452-7.014 1.25-.824 2.645-1.89 2.645-1.89l10.454 2.235z" fill="#80a8e3"/><path d="M146.984 66.3a5.43 5.43 0 0 1-1.73-2.462c.046.63.137 1.256.272 1.873.208.814-6.097 4.968-6.097 4.968l7.555-4.38z" fill="#5b7dc3"/><path d="M152.818 41.63l-.072 2.77c.054.226 1.17.968 1.495 1.24s-1.757 2.317-2.772 2.778-4.222-.76-4.285-2.335.553-2.896 1.042-2.96 4.593-1.493 4.593-1.493z" class="C"/><path d="M149.185 44.56c-.335-.308.4-1.285.625-1.747 1.05-.317 3.008-1.176 3.008-1.176l-.045.995c-.028.5-.277.96-.68 1.258-.345.27-.726.493-1.132.66-.417.154-1.26.48-1.776.01z" class="K"/><path d="M153.098 44.606s-1.812 2.715-4.42 3.005c-.806-.796-.906-3.62.245-4.525 0 0-1.033-.833-1.748-.67a3.62 3.62 0 0 0-1.585 2.027c-.66 1.89-.968 3.883-.906 5.882l.3 9.61s-.326 1.44 2.002 2.715 4.475 1.9 6.05 1.53c1.305-.308 2.718-1.104 2.9-2.127-.11-1.89-.516-5.05-.2-7.43s.3-4.344.417-6.27-.254-1.882-1.214-2.56a15.51 15.51 0 0 0-1.83-1.186h0z" class="G"/><path d="M148.687 47.61c-.112-.62-.185-1.245-.217-1.873.11-.717.354-1.407.716-2.036v-.706c-.36.097-.68.31-.906.606a3.97 3.97 0 0 0-.906 2.796c.313.52.77.94 1.314 1.213z" class="J"/><path d="M148.687 47.61c-.18-.362-.544-1.584-.716-1.8-.344-.11-.66.552-.66.552.01.41.163.805.435 1.113a.8.8 0 0 0 .942.145h0z" class="G"/><path d="M147.97 45.846c.172.18.534 1.403.716 1.8-.117-.204-.247-.4-.4-.588-.2-.244-.417-.715-.987-.624 0-.045.353-.706.66-.597z" fill="#c1cfe0"/><path d="M153.896 36.1s.245-.778-.752-1.538c-1.196-.905-2.863-.697-4.63 0-1.132.452-2.88-.1-2.537 1.195.49 1.89 4.15 2.054 5.743.733a4.2 4.2 0 0 1 2.174-.389h0z" fill="#533453"/><path d="M152.736 43.72c0 .39-2.12 1.928-2.61 2.127s-1.44 1.8-1.44 1.8c.713-.1 1.426.18 1.884.733 0 0 2.944-1.23 3.415-3.213l-.625-1.33c-.082-.27-.308-.58-.616-.597l-.01.47z" class="J"/><path d="M150.57 48.344s-.217-1.51-.534-1.647-1.35.905-1.35.905a2.82 2.82 0 0 0 1.884.742h0z" class="G"/><path d="M150.037 46.697c.317.136.534 1.647.534 1.647a6.71 6.71 0 0 0-1.096-.833 2.05 2.05 0 0 0-.806.1s1.05-1.05 1.368-.914z" fill="#c1cfe0"/><path d="M147.065 37.855h0c.14-1.95 1.804-3.436 3.76-3.357a3.93 3.93 0 0 1 3.705 4.136c-.07 1.21-.703 2.32-1.712 2.995a4.07 4.07 0 0 1-.308.905c-1 .81-2.246 1.258-3.533 1.267-.76-.074-1.4-.6-1.622-1.33-.505-1.485-.605-3.08-.3-4.615h0z" class="C"/><path d="M147.355 36.262a3.89 3.89 0 0 1 4.077-1.683 3.94 3.94 0 0 1 3.089 3.43 3.89 3.89 0 0 1-1.703 3.62c.045-.136 1.07-1.665 0-2.01-.163.236-.243.52-.226.805 0 0-.516 0-.4-.66 0-.172.063-.326.09-.47a1.81 1.81 0 0 0-.308-1.357 1.6 1.6 0 0 1-.272-1.285 5.26 5.26 0 0 1-2.98.235 2.81 2.81 0 0 1-1.368-.624z" fill="#533453"/><path d="M154.412 67.683c.39-.396.805-.767 1.24-1.113.43-.24.796-.577 1.07-.986a12.94 12.94 0 0 0 .906-4.045 16.79 16.79 0 0 0-.571-5.683c-.688-2.2-2.165-5.158-2.645-6.407-.43-.804-.296-1.793.335-2.452.58-.706 1.613-.67 2.51 1.032a36.03 36.03 0 0 1 2.79 7.412 17.89 17.89 0 0 1 .317 5.846c-.204 1.675-.612 3.32-1.214 4.896-.163.47-.163.86-.362 1.8-.178.928-.575 1.8-1.16 2.543-.534.588-.824.715-.987.66s-.217-.28 0-.58a4.92 4.92 0 0 0 .861-1.502l-.734 1.06c-.26.34-.566.644-.906.905-.335.235-.906 0-.707-.27s.453-.48.906-1.05a4.44 4.44 0 0 0 .58-.977c-.31.366-.65.705-1.015 1.014a2.01 2.01 0 0 1-1.006.516c-.2 0-.49-.2-.18-.534.446-.368.848-.787 1.196-1.25.317-.49.48-.905.362-.86s-.28.317-.725.56-.978.226-1.096 0-.172-.235.236-.543z" class="C"/><path d="M154.82 46.58c-.833.398-.978 1.52-.553 2.833s1.622 3.946 1.902 4.96a9.46 9.46 0 0 0 .661 1.719 4.34 4.34 0 0 0 3.207-1.14 41.6 41.6 0 0 0-1.911-5.348c-1.06-2.308-1.803-3.73-3.307-3.023z" class="J"/><path d="M158.362 55.538c-.557.19-1.153.23-1.73.118l-.136-.317s-.145.11.082.905.48 1.222.67 1.285c1.178.398 3.153-.49 3.153-1.176 0-.48-.09-1.8-.553-2.036l.1.37a4.14 4.14 0 0 1-1.585.851h0z" class="G"/><path d="M152.818 41.63s.09.208.48.226c.456-.11.834-.428 1.024-.857a1.51 1.51 0 0 0-.055-1.333c-.172-.22-.436-.35-.716-.35s-.544.13-.716.35l-.018 1.964z" class="C"/><path d="M135.207 64.896l6.115-3.51c.11-.063.244-.063.353 0l10.7 6.172-6.27 3.62-10.898-6.28z" fill="#eef5fd"/><path d="M146.14 70.652l3.288-1.89-9.62-5.548-3.307 1.882z" class="L"/><path fill="#adb4b6" d="M147.754 65.385l-.054.027-1.613.932-2.872-1.656-.054-.027 1.667-.968z"/><path d="M147.7 65.412l-1.613.932-2.872-1.656 1.613-.923z" class="L"/><path d="M152.356 67.557v.136c0 .21-.1.406-.3.516l-5.69 3.285a.56.56 0 0 1-.29.081.6.6 0 0 1-.299-.081l-10.282-5.937a.59.59 0 0 1-.299-.507v-.145l10.87 6.27 6.278-3.62z" class="R"/><path d="M146.087 71.167v.398a.6.6 0 0 1-.299-.081l-10.282-5.937a.59.59 0 0 1-.299-.507v-.145l10.88 6.27z" class="L"/><path d="M145.915 71.258a.7.7 0 0 1-.598 0l-10.246-5.955c-.178-.106-.3-.285-.335-.49l-1.123-6.68v-.11a.68.68 0 0 1 .208-.498l10.644 6.136c.134.078.227.2.254.362l1.196 7.23z" fill="#eef5fd"/><path d="M146.087 71.167h-.172l-1.205-7.24c-.027-.152-.12-.284-.254-.362l-10.644-6.136c.042-.044.09-.08.145-.11l10.663 6.154c.133.074.226.203.254.353l1.214 7.34z" class="R"/><path d="M140.153 65.095a2.29 2.29 0 0 0-1.033-1.33c-.498-.3-.842-.154-.76.3.158.56.53 1.038 1.033 1.33.49.28.833.154.76-.3z" class="L"/><path d="M152.85 199.984l5.734-3.312c3.886-2.244 9.258-2.778 11.994-1.204s1.812 4.68-2.084 6.923l-5.734 3.303c-3.886 2.244-9.258 2.778-11.994 1.204s-1.803-4.68 2.084-6.914z" style="mix-blend-mode:multiply" class="H I"/><use xlink:href="#R" class="C"/><path d="M166.31 151.16c.838-.394 1.838-.093 2.32.697.648 1.634 1.086 3.342 1.305 5.086a2.44 2.44 0 0 1-2.147.986l-1.477-6.77z" class="S"/><path d="M166.9 197.948c.046.34.1.68.2 1.014.1.443.127 1.023-.37 1.176-.482.204-1.04.076-1.386-.317a8.48 8.48 0 0 0-1.178-1.729 4.09 4.09 0 0 1-1.44-1.864c-.18-.724-.063-1.167.426-1.24.77.034 1.5.313 2.1.796.6.682 1.15 1.405 1.65 2.163zm-5.67 2.082s0 .57.072 1.023c.084.503.084 1.017 0 1.52-.145.335-.906.58-1.812.58a4.23 4.23 0 0 0-2.075.778 3.3 3.3 0 0 1-2.609.443c-.752-.244-1.594-.588-1.72-.905s.263-.525 2.12-1.367 3.216-1.43 3.932-2.407l2.093.335z" class="T"/><path d="M167.343 188.12a21.5 21.5 0 0 0-.815-3.855l.362-6.48c.145-3.62 1.386-6.733.4-9.584l-11.052 2.452.815 16a32.83 32.83 0 0 0 .498 4.009l1.323 9.357c.727.39 1.6.39 2.328 0l.217-10.036-.163-2.253.362-6.072.236-3.014a128.7 128.7 0 0 0 .507 4.19c.172 1.73.59 3.294 1.06 6.507l1.46 8.525c.6.412 1.383.44 2.01.072 0 0 .77-7.403.453-9.82z" fill="#b2bfdb"/><path d="M161.854 178.654l.507 4.2c.082.833.226 1.63.4 2.588l-.09-5.43.236-3.62c2.32-.986 2.8-2.398 2.8-2.398-1.033.88-2.24 1.534-3.542 1.92l-.308 2.75z" fill="#8fa4c9"/><path d="M165.758 151.215c-.842.045-1.477.262-1.576 0a10.85 10.85 0 0 1-.19-1.312l.18-.507c1.507-.926 2.257-2.71 1.863-4.433a4.13 4.13 0 0 0-3.603-3.187 3.83 3.83 0 0 0-4.131 3.339c-.392 1.596-.367 3.267.072 4.85.344.905.643 1.348 1.078 1.493a7.47 7.47 0 0 0 1.259 0h0l.2 1.032c.072.407.054.615-.752 1.113s1.214 1.52 2.546 1.42a4.26 4.26 0 0 0 3.225-1.756c.426-.96.38-2.08-.163-2.054z" class="C"/><path d="M160.123 153.604l-.072.054 1.16.398 3.415-.525.797-2.036s0-.1-.082-.244c-.643.063-1.096.18-1.187 0a6.98 6.98 0 0 1-.172-1.14l-1.522.244c-.18.01-1.404-1.593-1.404-1.593a12.47 12.47 0 0 1-.299 1.719 2.52 2.52 0 0 1-1.504.905l.172.072a7.47 7.47 0 0 0 1.259 0h0l.2 1.032c.072.407.054.606-.752 1.113z" class="K"/><path d="M166.12 143.75c-.1-.498-.453-1.14-3.116-1.882s-4.53-1.014-5.02-.688-.607 2.842 1.812 4.036c.105.21.158.443.154.68v1.13a.76.76 0 0 0 .707.643V146.6a.79.79 0 0 1 1.413.063 1.81 1.81 0 0 1-.082 1.692c-.28.525-.752.57-.906.38a3.32 3.32 0 0 0 .797 2.262c.76.192 1.566.014 2.174-.48.237-.482.507-.948.806-1.394a6.71 6.71 0 0 0 1.286-2.561 6.14 6.14 0 0 0-.027-2.814h0z" fill="#3a2e6b"/><g class="S"><path d="M164.508 151.342c.236.58-.362 1.294-1.94 1.8s-1.72-.145-1.72-.145c-1.054.473-2.082 1-3.08 1.584-.906.66-1.368 2.58-1.495 5.82-.145 3.747-.163 9.303 0 10.262 1.09 1.034 2.538 1.602 4.04 1.584 2.274-.2 6.097-2.2 7.02-3.747 0-3.285-.408-3.82.118-5.7 1.223-4.335 1.866-6.11 1.268-8.986-.49-2.37-1.17-2.715-2.11-2.652-.703.024-1.405.084-2.102.18z"/><path d="M164.1 151.025a4.53 4.53 0 0 1-3.243 1.367c-.335-.063-.525.597-.725.905a3.01 3.01 0 0 0 2.573.208c1.812-.452 2.392-1.756 2.247-2.244 0 .027-.57-.597-.852-.235z"/></g><path d="M152.704 164.093c1.866.47 2.3-.706 2.546-1.674l1.36-5.8c.516-1.575 1.06-1.8 1.812-2.136s1.667.398 1.368 2.407c-.365 2.326-.935 4.616-1.703 6.842-.276 1.002-.803 1.918-1.53 2.66-.96.778-2.4.742-4.602.2a25.38 25.38 0 0 1-3.723-1.611l-1.748-.796a6.24 6.24 0 0 1-2.337-1.81c-.48-.688-.544-1.014-.444-1.176s.335-.145.59.145c.37.485.825.902 1.34 1.23l-.906-.995c-.285-.35-.522-.737-.707-1.15-.163-.407.18-.95.444-.66s.4.58.906 1.15a5.17 5.17 0 0 0 .906.824c-.3-.404-.565-.83-.797-1.276-.205-.35-.306-.753-.3-1.158 0-.208.308-.462.59-.063.27.547.605 1.06.996 1.53.426.443.788.697.806.57s-.263-.362-.417-.905 0-1.05.3-1.113.226 0 .453.434c.313.496.597 1 .852 1.538a3.14 3.14 0 0 0 .761 1.321 6.98 6.98 0 0 0 3.189 1.484z" class="C"/><path d="M159.127 154.156c-1.24-.2-2.12.37-2.718 2.253l-.906 3.43c.495.72 1.247 1.222 2.102 1.403 1.486.362 2.02-.353 2.02-.353l.67-3.312c.254-1.34.37-3.195-1.17-3.42z" class="S"/><path d="M189.383 169.545l-1-1.27 3.145-1.842 2.167.584 1.356-.786-10.67-2.785-1 .584 4.712 6.29 1.29-.775zm-3.78-4.717h0l4.446 1.235-2.39 1.415-2.056-2.65zm12.703-.517l-8.28-4.83-1.134.674 8.27 4.83 1.145-.674zm-.367-3.032c1.753 1.014 3.9 1.044 5.68.08 1.11-.674 1.478-1.348 1.11-2.246l-1.3.168c.267.562 0 1.033-.734 1.46a3.72 3.72 0 0 1-3.334 0l4.145-2.437c-.175-.15-.365-.282-.567-.393-1.613-.877-3.555-.877-5.168 0-1.556.943-1.5 2.392.167 3.37h0zm.8-2.808c.876-.438 1.903-.438 2.778 0l-2.967 1.74c-.59-.562-.667-1.235.19-1.74zm10.87-.786l-3.757-2.2c-.13-.215-.16-.477-.083-.716a.86.86 0 0 1 .483-.531c.203-.117.425-.197.656-.236l-.922-.81c-.25.082-.49.196-.71.337-.252.118-.44.34-.518.61s-.034.56.118.794l-.91-.483-1.11.63 5.557 3.257 1.2-.663zm-2.167-5.278l.978.562.722-.416 2.667 1.55c.395.24.82.422 1.267.54.837.23 1.73.108 2.478-.337a2.01 2.01 0 0 0 .834-.809l-1.223-.337c-.116.193-.28.352-.478.46-.5.265-1.084.234-1.545-.08l-.445-.247-2.445-1.426 1.523-.898-.978-.562-1.523.898-1.31-.764-1.11.64 1.29.786-.7.438zm7.024-2.325a4.13 4.13 0 0 0 3.167 0 2.97 2.97 0 0 1 1.912-.124c.51.303.333.708-.156.988-.57.294-1.208.422-1.845.37l-.11.82a5.18 5.18 0 0 0 2.89-.64c1.045-.618 1.523-1.505.278-2.246a4.5 4.5 0 0 0-3.334 0c-.582.24-1.225.283-1.834.124-.4-.225-.356-.562.11-.83a3.47 3.47 0 0 1 1.511-.393v-.81c-.84.017-1.665.24-2.4.65-.934.595-1.334 1.426-.19 2.09h0zm8.558-7.255c.71.365 1.504.54 2.3.505-.333.696-.11 1.438.778 1.954a5.67 5.67 0 0 0 5.012-.101c.934-.562 1.445-1.258 1.256-2.044l2.556-.1-.09-.842-5.646.19.11.842 1.667-.056c.144.505-.09.966-.745 1.348-.925.498-2.03.527-2.98.08-.61-.337-.745-.842-.49-1.292h.4l-.11-.842c-.957.143-1.934.047-2.845-.28-.556-.337-.49-.82.11-1.123a2.07 2.07 0 0 1 1.767-.168l.745-.786c-1.16-.375-2.42-.254-3.5.337-1.09.595-1.445 1.707-.278 2.358l-.033.01zm-36.287 34.703l5.557 3.257-9.602-.854-1.034.595 7.735 4.515 1.167-.674-5.535-3.234 9.59.854 1.034-.606-7.735-4.515-1.167.674-.01-.01zm14.337-2.64a6.19 6.19 0 0 0-5.779 0c-1.645.966-1.556 2.437.067 3.37 1.812.966 3.98.966 5.8 0 1.634-.943 1.556-2.415-.078-3.37h0zm-.956 2.785a3.9 3.9 0 0 1-3.601-.112c-1.045-.618-1.19-1.527-.2-2.11a3.9 3.9 0 0 1 3.601.112c1.034.606 1.19 1.527.2 2.11zm7.18-4.21c-.49.267-1.085.237-1.545-.08l-.445-.258-2.423-1.415 1.523-.898-1-.562-1.523.898-1.31-.764-1.11.63 1.256.786-.722.427 1 .562.722-.427 2.667 1.572a5.23 5.23 0 0 0 1.267.55c.836.22 1.723.094 2.467-.348.348-.19.64-.468.845-.81l-1.223-.337a1.32 1.32 0 0 1-.433.46l-.01.01zm-3.823-5.84l1.178.674 1.134-.65-1.178-.696-1.134.674zm2.2 1.27l5.6 3.257 1.11-.674-5.6-3.257-1.11.674zm7.78-3.403l-1-.562-1.49.876-.6-.382c-.445-.27-.778-.494-.745-.73s.133-.292.41-.45a2.61 2.61 0 0 1 .656-.292l-.8-.674a4.71 4.71 0 0 0-.989.427c-.778.45-1 .854-.867 1.235a2.3 2.3 0 0 0 1.111 1.123l.71.416-.622.37.978.562.633-.37 4.6 2.695 1.11-.674-4.612-2.695 1.51-.876zm-.044-1.123l5.6 3.257 1.134-.674-5.6-3.257-1.134.674zm-2.2-1.28l1.178.696 1.145-.674-1.178-.674-1.145.674v-.022zm13.337.247a3.9 3.9 0 0 1-3.634-.09c-1.056-.618-1.11-1.572-.167-2.134a3.85 3.85 0 0 1 1.511-.427l-.333-.83a5.27 5.27 0 0 0-2.223.663c-1.634.966-1.6 2.448 0 3.37 1.804.982 3.975.982 5.78 0 .573-.262 1-.768 1.167-1.38l-1.41-.157a1.56 1.56 0 0 1-.678.988h-.01zm1.29-6.4c-.684.4-1.27.954-1.712 1.617l1.245.36a3.12 3.12 0 0 1 1.245-1.314c.775-.506 1.77-.506 2.545 0l.167.1a9.68 9.68 0 0 0-1.2.573c-1.223.708-2.023 1.685-.61 2.516a3.71 3.71 0 0 0 3.701-.157c.667-.393 1-.81.922-1.348l.6.314 1.034-.618-3.368-1.965a4.21 4.21 0 0 0-4.568-.056v-.01zM230.46 160c-.572.37-1.297.406-1.9.1-.778-.45-.11-1.067.522-1.46.332-.195.682-.356 1.045-.483l1.11.65c-.043.504-.336.952-.778 1.2h0zm7.113-4.324c-.5.265-1.084.234-1.545-.08l-.445-.258-2.423-1.415 1.523-.898-1-.584-1.523.898-1.31-.764-1.11.63 1.256.786-.722.427 1 .562.722-.416 2.667 1.55a4.85 4.85 0 0 0 1.278.539 3.17 3.17 0 0 0 2.467-.337c.348-.19.64-.468.845-.81l-1.223-.337a1.12 1.12 0 0 1-.433.46l-.022.045zm-3.823-5.84l1.178.696 1.134-.674-1.178-.674-1.134.674v-.022zm2.2 1.292l5.6 3.257 1.145-.674-5.6-3.257-1.134.674zm12.036-3.818a6.19 6.19 0 0 0-5.779 0c-1.645.966-1.556 2.426.078 3.37a6.19 6.19 0 0 0 5.779 0c1.634-.943 1.556-2.415-.078-3.37h0zm-.956 2.785c-1.147.558-2.49.516-3.6-.112-1.045-.606-1.19-1.527-.2-2.1 1.15-.562 2.496-.524 3.612.1 1.034.606 1.178 1.54.222 2.11h-.033zm5.6-8.12c-.798-.07-1.597.1-2.29.517a1.34 1.34 0 0 0-.778 1.651l-.922-.494-1.11.63 5.557 3.257 1.11-.674-3.7-2.156c-.124-.272-.135-.583-.03-.864a1.12 1.12 0 0 1 .586-.63c.405-.24.878-.34 1.345-.28a5.07 5.07 0 0 1 1.723.696l2.8 1.64 1.11-.674-2.756-1.685c-.802-.51-1.705-.837-2.645-.955v.022zm10.292-2.055c-1.072-.425-2.262-.425-3.334 0a2.84 2.84 0 0 1-1.845.124c-.39-.225-.356-.562.09-.83a3.69 3.69 0 0 1 1.534-.393l-.056-.786c-.84.02-1.664.243-2.4.65-.945.562-1.3 1.404-.167 2.066a4.24 4.24 0 0 0 3.167 0 2.97 2.97 0 0 1 1.912-.124c.522.303.333.708-.167.988a3.49 3.49 0 0 1-1.834.382l-.11.82c1.004.06 2.005-.167 2.9-.65 1.134-.63 1.556-1.46.31-2.246h.01z" fill="#020071"/><path d="M198.885 141.615l-1.603.905-1.585.905-1.603.905-1.613.905c.47.218.967.38 1.477.48a7.5 7.5 0 0 0 1.622.127 7 7 0 0 0 1.603-.208c.498-.114.977-.3 1.422-.552.372-.2.7-.5.97-.824a1.81 1.81 0 0 0 .353-.905 1.49 1.49 0 0 0-.226-.905 2.5 2.5 0 0 0-.815-.905m-19.117-6.127l-.272-.244-.1-.262.082-.28.272-.226.417-.154.462-.063.47.063.4.154.28.235.072.27-.072.27-.272.226-.417.172-.462.045-.453-.054-.417-.154m21.742 1.946c-.86.256-1.767.318-2.654.18-.813-.1-1.606-.32-2.355-.652-.5-.204-.97-.436-1.43-.697l-.263-.163-.652-.434-.906-.543a15.74 15.74 0 0 0-1.341-.688l-1.948-.76c-.562-.2-1.05-.308-1.395-.4l-.525-.1-1.93-.063a16.97 16.97 0 0 0-1.64.109c-.475.06-.947.144-1.413.253a10.39 10.39 0 0 0-1.141.299 3.4 3.4 0 0 0-.725-.172 4.38 4.38 0 0 0-.77 0 2.72 2.72 0 0 0-.743.127c-.236.057-.46.15-.67.27a1.65 1.65 0 0 0-.462.389 1.06 1.06 0 0 0-.236.443.76.76 0 0 0 .072.462c.063.164.166.3.3.425a3.78 3.78 0 0 0-.48.652 3.31 3.31 0 0 0-.371.787c-.087.295-.145.598-.172.905a3.86 3.86 0 0 0 .118 1.041 2.48 2.48 0 0 0 .19.317 7.17 7.17 0 0 0 .679.796 10.03 10.03 0 0 0 1.314 1.13 12.92 12.92 0 0 0 1.268.824 8.41 8.41 0 0 0 .906.462l.743.37.217.118a13.78 13.78 0 0 1 1.277.86 3.55 3.55 0 0 1 1.114 1.367 1.34 1.34 0 0 1-.308 1.538l.28.163.3.172.3.163.3.172 4.077-2.362 4.095-2.362 4.086-2.362 4.068-2.362-.28-.163-.3-.172-.3-.163-.28-.18" fill="#63e9ac"/><g class="F"><path d="M486.962 311.8v5.756c0 1.8-1.087 3.557-3.252 4.968v-5.756c2.165-1.412 3.252-3.186 3.252-4.968"/><path d="M483.755 316.742v5.756l-.534.326v-5.756l.534-.326m-275.732.353v5.756l-.716-.443v-5.756l.716.443"/><path d="M207.308 316.65v5.756c-2.084-1.42-3.125-3.167-3.125-4.923v-5.756c0 1.756 1.033 3.5 3.125 4.923m275.867.445l-.018 5.756-127.932 74.27.018-5.756zm-146.368 74.27l-.018 5.756-128.784-74.27.018-5.756z"/></g><path d="M483.11 306.434c5.11 2.94 5.136 7.72.063 10.66l-127.932 74.27c-5.073 2.95-13.335 2.95-18.435 0l-128.784-74.27c-5.1-2.94-5.127-7.72-.054-10.66l127.94-74.27c5.064-2.95 13.317-2.95 18.426 0l128.775 74.27z" fill="#fdfeff"/><g class="F"><path d="M355.243 391.366v5.756c-1.413.797-2.94 1.37-4.53 1.7v-5.756c1.59-.33 3.117-.904 4.53-1.7"/><path d="M350.74 393.068v5.756a22.09 22.09 0 0 1-9.675-.054v-5.756a22.09 22.09 0 0 0 9.675.054"/><path d="M341.065 393.013v5.756a16.09 16.09 0 0 1-4.258-1.647v-5.756a15.78 15.78 0 0 0 4.258 1.647"/></g><path d="M257.776 321.774l-.87-.498-4.15 2.416.86.498 1.594-.923 5.57 3.204.97-.56-5.562-3.213 1.585-.923M266.12 318l-.97.56 2.537 2.5-.027.018-4.312-1.457-.95.543 2.455 2.543-.018.01-4.25-1.493-1.006.58 5.916 1.946 1.033-.606-2.428-2.498.018-.01 4.312 1.412.987-.58L266.12 318m4.683-.036c-.906-.498-.978-1.258-.163-1.738a3.28 3.28 0 0 1 2.999.09c.86.507.987 1.258.172 1.738-.958.46-2.08.426-3.008-.1m3.796-2.2c-1.507-.787-3.304-.787-4.8 0-1.377.796-1.295 2 .063 2.778a5.15 5.15 0 0 0 4.801 0c1.36-.787 1.305-2-.054-2.778m8.224-5.22l-.87-.498-2.337 1.357-1.993-1.15 2.346-1.357-.87-.498-3.316 1.928 6.432 3.7.978-.57-2.7-1.566 2.337-1.357m4.044-.776c-.66-.4-.1-.905.435-1.195a6.8 6.8 0 0 1 .906-.407l.906.543a1.25 1.25 0 0 1-.661.977 1.58 1.58 0 0 1-1.576.081m4.33-.905l-2.817-1.62c-1.144-.752-2.62-.773-3.787-.054a4.22 4.22 0 0 0-1.413 1.339l1.024.3a2.65 2.65 0 0 1 1.042-1.086c.65-.408 1.478-.408 2.13 0l.136.08a6.51 6.51 0 0 0-1.015.471c-.996.58-1.676 1.394-.507 2.072a3.13 3.13 0 0 0 3.08-.136c.562-.326.833-.67.77-1.113l.5.253.906-.507m5.377-3.6l-1.17-.127a1.33 1.33 0 0 1-.634.742 3.29 3.29 0 0 1-3.026-.072c-.86-.507-.906-1.285-.136-1.756a3.22 3.22 0 0 1 1.26-.344l-.28-.697c-.637.05-1.255.24-1.812.552-1.368.787-1.332 2.018 0 2.796a5.08 5.08 0 0 0 4.801 0 1.81 1.81 0 0 0 .987-1.131m4.64-2.37l-1.024-.27c-.085.162-.218.295-.38.38a1.27 1.27 0 0 1-1.286-.063c-.13-.062-.258-.13-.38-.208l-2.02-1.167 1.268-.733-.815-.47-1.268.733-1.096-.624-.906.516 1.05.66-.607.344.815.47.607-.344 2.2 1.276a4.47 4.47 0 0 0 1.06.443c.692.186 1.43.084 2.047-.28a1.74 1.74 0 0 0 .707-.661m.2-2.626c-.906-.498-.987-1.258-.172-1.73a3.23 3.23 0 0 1 2.999.09c.86.498.987 1.258.172 1.73a3.23 3.23 0 0 1-3-.1m3.787-2.2c-1.507-.787-3.304-.787-4.8 0-1.368.796-1.295 2 .063 2.778a5.15 5.15 0 0 0 4.801 0c1.368-.787 1.305-2-.054-2.778m2.256-4.053a3.04 3.04 0 0 0-.598.27c-.206.1-.36.285-.424.505s-.03.458.1.653l-.752-.398-.906.516 4.638 2.715.906-.543-3.125-1.8a.71.71 0 0 1-.065-.587c.065-.197.2-.355.4-.435.165-.098.346-.166.534-.2l-.752-.66m-22.576 28.76l-1.757-2.154 3.723 1.014-1.984 1.15m6.097-1.005l-8.85-2.28-.833.48 3.923 5.167 1.078-.624-.852-1.04 2.618-1.52 1.812.5 1.132-.66m5.87-3.434l-4.656-2.715-.906.543 3.07 1.8c.107.22.12.477.033.707a.91.91 0 0 1-.486.515c-.34.198-.733.28-1.123.235a3.85 3.85 0 0 1-1.422-.57l-2.346-1.348-.906.543 2.42 1.403a5.44 5.44 0 0 0 2.165.769 3.22 3.22 0 0 0 1.902-.425c.537-.215.82-.804.652-1.357l.76.416.906-.525m4.567-2.824l-1.024-.27a1.03 1.03 0 0 1-.39.371c-.403.223-.898.198-1.277-.063l-.38-.208-2.02-1.158 1.268-.733-.824-.48-1.26.733-1.096-.624-.906.516 1.05.66-.607.344.824.48.598-.353 2.2 1.276a4.16 4.16 0 0 0 1.06.452 2.77 2.77 0 0 0 2.056-.28 1.94 1.94 0 0 0 .707-.661m6.054-3.36l-2.42-1.394c-.656-.412-1.396-.675-2.165-.77a3.13 3.13 0 0 0-1.902.416c-.528.214-.8.792-.652 1.34l-2.962-1.7-.906.543 6.885 3.973.906-.543-3.08-1.8a.96.96 0 0 1 .462-1.222 1.8 1.8 0 0 1 1.114-.235c.5.098.996.295 1.43.58l2.337 1.34.906-.543" fill="#05006d"/><path d="M329.29 356.263v-1.72l5.77-3.33v1.73l-5.762 3.32m7.863-4.525v-1.73l15.482-8.923v1.73l-15.482 8.923m-10.056 7.538a2.42 2.42 0 0 1-2.464-.081 2.11 2.11 0 0 1-1.305-2.199c.017-.13.04-.26.072-.39a2.64 2.64 0 0 1 .172-.443l.2-.362a.84.84 0 0 1 .272-.29.28.28 0 0 1 .263 0l.743.434c.145.08.145.37 0 .624l-.127.208-.245.434v.054a1.81 1.81 0 0 0 .661.661c.28.15.6.23.906.235h.063l.37-.633c.064-.116.157-.213.272-.28.08-.053.183-.053.263 0l.743.425c.154.1.145.37 0 .624l-.208.353c-.08.132-.18.254-.3.362-.09.1-.195.188-.308.262l-.082.054m26.362-23.312l-30.556 17.63c-.982.64-1.6 1.708-1.667 2.878v6.833c0 1.068.752 1.493 1.676.96l11.994-6.923v-.3c.006-.173.098-.333.245-.425l.842-.49c.136-.08.245 0 .245.145v.226l17.212-9.955c.984-.638 1.604-1.707 1.667-2.878v-6.833c0-1.06-.752-1.493-1.676-.96" fill="#fdf4d5"/><path d="M324.052 355.52a.84.84 0 0 0-.272.29l-.2.362a2.64 2.64 0 0 0-.172.443l-.072.4a2.11 2.11 0 0 0 1.305 2.199 2.42 2.42 0 0 0 2.464.081l.082-.054c.113-.074.217-.162.308-.262.1-.108.2-.23.3-.362l.208-.353c.154-.253.163-.534 0-.624l-.743-.425c-.08-.053-.183-.053-.263 0a.74.74 0 0 0-.272.28l-.37.633h-.063c-.316-.006-.627-.086-.906-.235a1.81 1.81 0 0 1-.661-.661v-.054l.245-.434.127-.208c.145-.253.145-.543 0-.624l-.743-.434a.28.28 0 0 0-.263 0m10.96-4.255l-5.77 3.33.01 1.73 5.762-3.33v-1.73m17.573-10.136L337.143 350l.01 1.73 15.482-8.923-.01-1.73" fill="#f9c61b"/><path d="M320.62 338.154a.84.84 0 0 0-.371.652c0 .244.172.344.37.226.227-.145.37-.392.38-.66 0-.244-.172-.335-.38-.217m1.422-.814c-.225.143-.367.386-.38.652 0 .244.172.344.38.217.224-.143.363-.387.37-.652 0-.244-.163-.344-.37-.217m1.413-.814c-.225.143-.367.386-.38.652 0 .244.172.335.38.217a.84.84 0 0 0 .38-.661c0-.235-.172-.335-.38-.208m3.116 0v-1.683l10.708-6.18v1.73l-10.717 6.18m12.864-7.42v-1.73l5.807-3.348v1.72l-5.807 3.348m-19.386 13.04v-1.005c-.308.136-.643.08-.643-.253v-2.932a1.69 1.69 0 0 1 .725-1.158l3.805-2.2a.4.4 0 0 1 .634.371v2.94c-.037.413-.274.78-.634.986l-2.78 1.602-1.105 1.63m27.54-23.873l-30.51 17.63c-.986.64-1.605 1.714-1.667 2.887v6.833c0 1.05.76 1.484 1.676.95l3.515-2.018v-.37a.49.49 0 0 1 .217-.362l.852-.49c.042-.032.1-.036.147-.01s.074.076.07.13v.362l10-5.774v-.362a.55.55 0 0 1 .245-.425l.852-.49c.136-.072.254 0 .254.136v.362l9.83-5.665v-.39c.01-.174.106-.333.254-.425l.852-.49c.136-.08.245 0 .245.136v.362l3.234-1.864c.982-.64 1.6-1.708 1.667-2.878v-6.842c0-1.06-.752-1.484-1.676-.905" fill="#d7e4f9"/><path d="M337.28 328.643l-10.708 6.18v1.72l10.717-6.172-.01-1.73m7.963-4.586l-5.807 3.348v1.73l5.807-3.348v-1.73m-24.622 14.977c-.2.118-.37 0-.37-.226a.84.84 0 0 1 .371-.652c.208-.118.38 0 .38.217-.01.27-.153.516-.38.66m1.422-.824c-.208.127-.38 0-.38-.217.014-.266.156-.5.38-.652.208-.127.37 0 .37.217a.81.81 0 0 1-.37.652m1.413-.814c-.208.118-.38 0-.38-.217.014-.266.156-.5.38-.652.208-.127.37 0 .38.208a.84.84 0 0 1-.38.661m.47-2.715l-3.805 2.2a1.69 1.69 0 0 0-.725 1.158v2.932c0 .335.335.4.643.253v.986l1.105-1.63 2.78-1.602c.36-.205.597-.574.634-.986v-2.94a.4.4 0 0 0-.634-.371" fill="#5484f1"/><path d="M332.858 310.643v-1.72l7.655-4.416v1.72l-7.655 4.416m8.742-5.04v-1.73l8.987-5.23v1.73l-9.06 5.204m-13.715 9.72c-1.24.724-2.247.136-2.256-1.303.086-1.585.92-3.036 2.247-3.9 1.24-.715 2.247-.127 2.256 1.312-.083 1.584-.917 3.033-2.247 3.9m25.764-22.805l-30.556 17.62c-.982.64-1.6 1.708-1.667 2.878v6.842c0 1.06.752 1.484 1.676.905l3.352-1.937v-.49a.55.55 0 0 1 .245-.425l.852-.49c.136-.08.245 0 .245.145v.49l10.047-5.792v-.49a.4.4 0 0 1 .181-.326l.852-.49c.11-.063.2 0 .2.1v.498l10.047-5.792v-.498c.007-.17.094-.33.236-.425l.86-.49c.136-.08.245 0 .245.145v.507l3.207-1.8c.984-.638 1.604-1.707 1.667-2.878v-6.842c0-1.05-.76-1.484-1.676-.95" fill="#bbf9da"/><path d="M332.677 338.462l-.236.136v2.77c0 .39.28.552.616.353l2.61-1.502c.2-.118.362 0 .362.208v2.56l-.634.362h-.045l-.045.18.76 1.294.136-.127.752-2.172v-.054l-.1-.063-.634.362v-2.498c0-.39-.272-.543-.607-.353l-2.61 1.51c-.208.118-.37 0-.37-.217v-2.75" class="U"/><path d="M336.02 356.145l-.842.49c-.147.093-.238.252-.245.425v.986c0 .154.118.208.245.127l.842-.48c.15-.092.244-.25.254-.425v-.977c0-.163-.11-.226-.245-.145" fill="#f9c61b"/><path d="M321.597 343.35l-.852.5a.49.49 0 0 0-.217.362v.995c0 .127.1.2.208.118l.86-.5a.49.49 0 0 0 .208-.362v-.995a.14.14 0 0 0-.07-.13c-.046-.027-.104-.02-.147.01m11.37-6.568l-.852.5a.55.55 0 0 0-.245.425v.986c0 .163.118.217.254.136l.326-.2.236-.136.3-.163c.143-.092.234-.247.245-.416v-.995c0-.154-.118-.208-.254-.136m11.17-6.454l-.852.5c-.148.093-.242.25-.254.425v.986c0 .154.1.217.245.136l.852-.5c.143-.092.234-.247.245-.416v-.995c0-.154-.1-.217-.245-.136" fill="#5484f1"/><g class="U"><path d="M327.495 317.44l-.852.5a.55.55 0 0 0-.245.425v.986c0 .154.1.226.245.145l.86-.498c.14-.094.227-.248.236-.416v-.986c0-.154-.1-.226-.245-.145m11.306-6.463l-.852.5a.4.4 0 0 0-.181.326v.977a.11.11 0 0 0 .19.109l.852-.5c.108-.074.176-.195.18-.326v-.986c0-.118-.082-.163-.2-.1m11.363-6.608l-.86.5a.55.55 0 0 0-.236.425v.986c0 .154.1.226.245.145l.4-.226.435-.253c.14-.094.227-.248.236-.416v-.986c0-.154-.1-.226-.245-.145"/><path d="M349.68 306.163h0l-.118.2v3.837c-.015.254-.15.485-.362.624l-16.306 9.42c-.36.236-.59.63-.616 1.06v2.543l-.634.362-.045.045v.18l.76 1.294h.045l.136-.127.743-2.163v-.054l-.11-.063-.625.362v-2.498c.014-.256.148-.49.362-.633l16.306-9.42a1.35 1.35 0 0 0 .607-1.05v-3.837l-.11-.063"/></g><path d="M327.386 311.92l-.127.217.01 1.747.027.063.172-.063 1.06-1.484.027-.045-.027-.2-1.07-.253-.072.018" class="B"/><path d="M340.504 304.507l-7.655 4.416.01 1.72 7.655-4.416-.01-1.72m10.1-5.837l-9.023 5.204.01 1.73 9.023-5.204-.01-1.73m-23.146 15.213l-.172.063v-1.8l.127-.217h.072l1.07.253v.244l-1.06 1.484m.335-3.8c-1.327.873-2.16 2.324-2.247 3.9 0 1.44 1.015 2.027 2.256 1.303 1.33-.867 2.164-2.317 2.247-3.9 0-1.44-1.015-2.027-2.256-1.312" class="U"/><path d="M356.085 371.7l5.734-3.303c3.886-2.244 9.258-2.787 11.994-1.204s1.812 4.67-2.084 6.914l-5.743 3.312c-3.886 2.244-9.258 2.778-11.994 1.204s-1.794-4.68 2.093-6.923z" style="mix-blend-mode:multiply" class="H I"/><use xlink:href="#R" x="203.3" y="171.5" class="C"/><path d="M369.61 322.68c.838-.394 1.838-.093 2.32.697.652 1.648 1.1 3.372 1.305 5.13-.5.674-1.3 1.046-2.147.986l-1.477-6.814z" class="V"/><path d="M370.2 369.466c.046.34.1.68.2 1.014.1.443.127 1.023-.37 1.176-.482.204-1.04.076-1.386-.317a8.86 8.86 0 0 0-1.178-1.729 4.09 4.09 0 0 1-1.44-1.864c-.18-.715-.063-1.167.426-1.24.77.034 1.5.313 2.1.796.6.682 1.15 1.405 1.65 2.163zm-5.7 2.082a8.89 8.89 0 0 0 .063 1.023c.107.5.125 1.014.054 1.52-.145.335-.906.58-1.812.58a4.23 4.23 0 0 0-2.075.778 3.3 3.3 0 0 1-2.609.443c-.76-.244-1.594-.588-1.72-.905s.263-.525 2.12-1.367 3.207-1.43 3.932-2.407l2.047.335z" class="T"/><path d="M370.643 359.638a21.5 21.5 0 0 0-.815-3.855l.362-6.48c.136-3.62 1.386-6.733.4-9.584l-11.052 2.452.815 16c.084 1.345.25 2.684.498 4.01l1.323 9.357c.727.39 1.6.39 2.328 0l.217-10.036-.163-2.253.362-6.072.236-3.014s.308 2.217.507 4.2c.172 1.73.59 3.294 1.06 6.507l1.46 8.525c.6.412 1.383.44 2.01.072 0 0 .77-7.403.453-9.82z" fill="#b2bfdb"/><path d="M365.153 350.172l.507 4.2c.082.833.226 1.63.4 2.588l-.1-5.43.236-3.62c2.328-.986 2.808-2.398 2.808-2.398-1.033.88-2.24 1.534-3.542 1.92l-.308 2.75z" fill="#8fa4c9"/><path d="M369.03 322.733c-.842.045-1.477.262-1.576 0a10.85 10.85 0 0 1-.19-1.312l.18-.507c1.507-.926 2.257-2.71 1.863-4.433a4.13 4.13 0 0 0-3.603-3.187 3.83 3.83 0 0 0-4.131 3.339c-.392 1.596-.367 3.267.072 4.85.344.905.643 1.348 1.078 1.493a7.47 7.47 0 0 0 1.259 0h0l.2 1.032c.072.407.054.624-.752 1.113s1.214 1.52 2.546 1.42c1.284-.066 2.467-.712 3.216-1.756.426-.95.426-2.08-.154-2.054z" class="C"/><path d="M363.423 325.122l-.072.054 1.16.398 3.415-.525.797-2.036s0-.1-.082-.244c-.643.063-1.096.18-1.187 0a6.98 6.98 0 0 1-.172-1.14l-1.522.244c-.18.01-1.404-1.593-1.404-1.593a12.47 12.47 0 0 1-.299 1.719 2.52 2.52 0 0 1-1.504.905l.172.072a7.47 7.47 0 0 0 1.259 0h0l.2 1.032c.072.407.054.624-.752 1.113z" class="K"/><path d="M369.42 315.267c-.1-.498-.453-1.13-3.116-1.882s-4.53-1.014-5.02-.688-.607 2.842 1.812 4.036c.106.214.16.45.154.688v1.122a.76.76 0 0 0 .707.643v-1.068a.79.79 0 0 1 1.413.063 1.81 1.81 0 0 1-.082 1.692c-.28.525-.752.57-.906.38a3.32 3.32 0 0 0 .797 2.262c.76.192 1.566.014 2.174-.48.237-.482.507-.948.806-1.394a6.71 6.71 0 0 0 1.286-2.561 6.14 6.14 0 0 0-.027-2.814z" fill="#3a2e6b"/><g class="V"><path d="M367.8 322.86c.236.58-.362 1.294-1.94 1.8s-1.72-.145-1.72-.145c-1.054.473-2.082 1-3.08 1.584-.906.66-1.368 2.58-1.495 5.82-.145 3.747-.163 9.303 0 10.262 1.09 1.034 2.538 1.602 4.04 1.584 2.274-.2 6.088-2.2 7.02-3.747 0-3.285-.408-3.82.118-5.7 1.223-4.335 1.866-6.11 1.268-8.986-.49-2.37-1.17-2.715-2.11-2.643a18.86 18.86 0 0 0-2.102.172h0z"/><path d="M367.4 322.543a4.53 4.53 0 0 1-3.243 1.367c-.335-.063-.525.597-.725.905a3.04 3.04 0 0 0 2.573.199c1.812-.452 2.392-1.756 2.238-2.235 0 .027-.562-.606-.842-.235z"/></g><path d="M356.022 335.61c1.866.47 2.3-.706 2.546-1.674l1.35-5.8c.525-1.575 1.07-1.8 1.812-2.136s1.667.398 1.368 2.407c-.365 2.326-.935 4.616-1.703 6.842a6.07 6.07 0 0 1-1.531 2.661c-.96.778-2.4.742-4.602.2a25.38 25.38 0 0 1-3.723-1.611l-1.748-.796a6.24 6.24 0 0 1-2.337-1.81c-.48-.688-.544-1.014-.444-1.167s.335-.154.59.136c.37.49.824.908 1.34 1.24l-.906-1.005c-.285-.35-.522-.737-.707-1.15-.163-.407.18-.905.444-.66s.4.58.906 1.15a5.17 5.17 0 0 0 .906.824c-.3-.404-.565-.83-.797-1.276-.2-.35-.31-.752-.3-1.158 0-.208.308-.452.59-.054.274.543.608 1.053.996 1.52.426.443.788.697.797.58s-.254-.37-.408-.905 0-1.06.3-1.122.226 0 .453.434c.31.498.595 1.01.852 1.538a3.14 3.14 0 0 0 .761 1.321 6.98 6.98 0 0 0 3.198 1.484h0z" class="C"/><path d="M362.427 325.674c-1.25-.2-2.13.37-2.672 2.253l-.906 3.43a3.37 3.37 0 0 0 2.084 1.385c1.486.362 2.02-.353 2.02-.353l.67-3.312c.254-1.34.344-3.176-1.196-3.403z" class="V"/><g fill="#e9effa"><path d="M344.816 143.35v-2.452l9.06 5.213v2.452l-9.06-5.213m118.448 68.28v-2.434l8.68 5.005v2.434l-8.68-5.005m-122.488-69.294a4.84 4.84 0 0 1-2.201-3.81c0-1.403.987-1.973 2.22-1.267 1.297.85 2.114 2.263 2.2 3.8 0 1.403-1.006 1.964-2.22 1.267m133.286 67.104L338.52 131.222c-1.812-1.05-3.298-.2-3.307 1.89l-.272 95.204a7.24 7.24 0 0 0 3.279 5.683l135.57 78.217c1.812 1.05 3.298.208 3.307-1.882l.263-95.195a7.24 7.24 0 0 0-3.279-5.692"/><path d="M370.77 147.51a3.5 3.5 0 0 1-1.594-2.715c0-1.023.716-1.43 1.603-.905a3.51 3.51 0 0 1 1.603 2.76c0 1.023-.725 1.43-1.613.905m3.07-4.235l-28.473-16.425-3.624 6.226 35.73 20.597-3.624-10.398"/></g><path d="M370.78 143.892c-.906-.516-1.603-.11-1.603.905a3.5 3.5 0 0 0 1.594 2.715c.906.516 1.603.11 1.613-.905a3.51 3.51 0 0 0-1.603-2.76" fill="#c2d6f2"/><path d="M340.793 137.258c-1.232-.706-2.22-.136-2.22 1.267a4.84 4.84 0 0 0 2.201 3.81c1.214.697 2.2.136 2.22-1.267-.088-1.547-.905-2.96-2.2-3.8m13.063 8.842l-9.032-5.213-.01 2.452 9.032 5.213.01-2.452m118.093 68.1l-8.68-5.005-.01 2.434 8.68 5.005.01-2.434" class="M"/><g transform="translate(375.952 177.376)"><use fill="#000" filter="url(#K)" xlink:href="#J"/><use xlink:href="#J" class="B"/><path fill="#a7dbd7" d="M52.842 65.448L7.555 39.33l-.01.96 45.286 26.118.01-.96"/><path d="M20.3 17.557L7.637 10.244l-.01 4.054L20.3 21.6v-4.054M41.672 80.2l-8.443-4.87v1.213l8.434 4.86.01-1.204" fill="#b5c4e0"/><path d="M7.727 35.52c.26.828.755 1.563 1.422 2.118-.35-.267-.656-.588-.906-.95l2.4 1.394a1.46 1.46 0 0 1-.399.054.96.96 0 0 0 .842-.38l-3.298-1.9a3.64 3.64 0 0 1-.118-.335m3.75 1.25l-2.02-1.167L7.6 34.534c.003.25.034.5.09.742v-.127l3.732 2.154v.1a1.88 1.88 0 0 0 .1-.624m-3.94-2.38v.172c0 .054 0-.118 0-.172m.11-.452c-.056.142-.093.29-.11.443h.1l.163.235-.063-.253h.163l-.208-.118-.045-.226m.68.37l-.054.2-.163-.2.163.226-.063.18h.163l.163.226-.054-.253h.163l-.2-.118-.072-.262m.698.398l-.063.2-.208-.118.172.226-.063.2.163-.045.163.226-.063-.253h.163l-.2-.118-.063-.262m-1.277-.968v.063l.09.136-.054-.2m3.36 1.8l-1.65-.95v.58l1.866 1.068v.163c-.048-.295-.13-.584-.245-.86m-3.19-2.18a1.54 1.54 0 0 0-.172.172H7.9l.127-.118m.353.172l-.054.2-.208-.118.172.226-.072.2.163-.045.172.235-.063-.262h.163l-.2-.118-.072-.262m.707.407l-.072.18-.2-.118.163.226-.063.2h.163l.163.226-.063-.262h.172l-.208-.11-.054-.262m-.435-.67l-.172-.11-.2.054-.063.154.172-.045.163.235-.063-.244.163-.045m.435 0l-.072.2-.2-.118.163.235-.063.18.172-.045.154.226-.054-.244.163-.045-.208-.118-.054-.262m.426.08v.48l1.196.688a3.76 3.76 0 0 0-1.196-1.167" fill="#efefef"/><path d="M11.37 36.2l-1.867-1.07v.57l-.082-.045 2.02 1.167v-.127a1.57 1.57 0 0 0 0-.217h0v-.262m-.733-1.528h0L9.512 34v.588l1.65.95a4.76 4.76 0 0 0-.444-.851m-.018 3.485l-2.4-1.394a4.15 4.15 0 0 0 .906.95h0c.017.02.04.036.063.045h.054c.015-.004.03-.004.045 0h.045l.1.063.1.045h.562a1.46 1.46 0 0 0 .399-.054m.806-.433L7.628 35.24v.353c0 .118.072.226.118.335l3.298 1.9a1.41 1.41 0 0 0 .181-.371v-.1" fill="#d50a2e"/><path d="M8.208 34.77l.063-.18-.118-.2.208.118.054-.2.072.262.2.118h-.163l.054.253-.163-.226h-.163m.698.407l.063-.2-.172-.226.208.118.063-.2.063.262.2.118h-.163l.063.253-.163-.226-.163.045m-.698-1.05l.072-.2-.172-.226.208.118.054-.2.072.262.2.118h-.163l.063.262-.172-.235-.163.045m.698.398l.063-.2-.163-.226.2.118.072-.18.054.262.208.11h-.172l.063.262-.163-.226H8.95m0-.643l.063-.18-.163-.235.2.118.072-.2.054.262.208.118-.163.045.054.244-.154-.226-.172.045m.598-.362h-.09a1.46 1.46 0 0 0-.906-.199h0l.172.11-.163.045.063.244-.163-.235-.172.045.063-.154a.77.77 0 0 0-.254.145l-.127.118h.054-.1v.063l.054.2-.09-.136-.054.136.045.226.208.118h-.163l.063.253-.163-.235h-.1v.253l1.812 1.068.082.045v-1.955" fill="#0b55b0"/><g fill="#b5c4e0"><path d="M14.55 37.457l-.426-.235v.932l-.815-.462v.47l.815.47v.94l.417.244v-.94l.815.462v-.47l-.806-.47v-.94m2.318.86l-.326-.2h-.562v.516l.4.045v2.452l.5.28v-3.1m6.63 4.08l-2.002-1.158-.01 3.294 2.002 1.158V42.38"/><use xlink:href="#S"/><path d="M29.306 45.73l-2.002-1.158-.01 3.294 2.002 1.158.01-3.294"/><use xlink:href="#S" x="5.807" y="3.349"/><use xlink:href="#S" x="10.165" y="5.866"/><path d="M39.47 51.593l-1.993-1.15-.01 3.285 1.993 1.158.01-3.294m2.917 1.684l-2-1.158-.01 3.285 2.002 1.158.018-3.285m4.358 2.516l-2-1.158-.01 3.285 2 1.158.01-3.285m2.9 1.674l-2.002-1.158-.01 3.285 2.002 1.158.01-3.285m2.908 1.674l-2-1.158-.01 3.285 2 1.158.01-3.285"/></g><path fill="#a7dbd7" d="M26.697 63.086L7.52 52.027l-.01.968 19.187 11.06v-.968"/><path d="M9.385 47.204h0c-.86-.498-1.55-.1-1.55.905.053 1.086.626 2.08 1.54 2.67h0c.842.498 1.54.1 1.54-.905a3.35 3.35 0 0 0-1.531-2.661m5.11 2.932h0c-.852-.5-1.55-.1-1.55.905a3.39 3.39 0 0 0 1.54 2.66h0c.852.5 1.54.1 1.55-.905a3.41 3.41 0 0 0-1.54-2.67m5.118 2.96h0c-.86-.5-1.54-.1-1.55.905.055 1.083.628 2.073 1.54 2.66h0c.852.5 1.55.1 1.55-.905a3.41 3.41 0 0 0-1.531-2.67m5.1 2.96h0c-.842-.5-1.54-.1-1.54.905a3.35 3.35 0 0 0 1.53 2.66h0c.852.5 1.54.1 1.55-.905a3.4 3.4 0 0 0-1.54-2.67m-9.258 10.282V65.16l2.328 1.34 2.328 1.348v1.195l-2.328-1.348-2.337-1.34m12.22 3.475L7.9 58.434c-.1-.056-.2-.056-.3 0a.29.29 0 0 0-.118.271V63.6a.84.84 0 0 0 .118.407c.07.127.174.234.3.308l9.874 5.7 9.893 5.7a.29.29 0 0 0 .29 0c.082-.062.13-.16.127-.262V70.55a.89.89 0 0 0-.408-.715" fill="#5cebab"/><path d="M20.13 67.8L17.8 66.462l-2.328-1.34-.01.597v.597l2.337 1.34 2.328 1.348V67.8" class="B"/><path d="M48.312 41.484c-.06-.03-.13-.03-.2 0-.062.042-.097.115-.09.2a.66.66 0 0 0 .082.271c.052.08.12.147.2.2.062.034.137.034.2 0 .055-.044.085-.11.082-.18a.55.55 0 0 0-.082-.281.6.6 0 0 0-.199-.199m.598-2.878h-.072l-.353.208c-.118.054-.226.127-.353.2h0l-.145-.244-.136-.253-.072-.072h-.063l-.063.045h-.063v.145l.254.434.254.443.063.063h.063l.462-.27.462-.253v-.163l-.054-.1-.063-.11-.072-.08m-.172-2.1l-.408-.235-.4-.226h-.045v.054l.045.045.4.235.408.226v-.1m-.408-.56h-.063v.136l.063.063h.063V36l-.063-.063m-1.268 5.692l-.172-.18-.063-.235v-6.1l.063-.154h.172l1.205.688 1.205.697.172.18.063.226v6.072l-.063.154h-.172l-1.205-.697-1.205-.652m1.232-7.882c-.945-.688-2.19-.813-3.252-.326-.953.66-1.47 1.788-1.35 2.94a9.17 9.17 0 0 0 1.332 4.525c.77 1.392 1.883 2.563 3.234 3.403a3.29 3.29 0 0 0 3.252.344 3.21 3.21 0 0 0 1.35-3.005 9.19 9.19 0 0 0-1.323-4.525 9.39 9.39 0 0 0-3.243-3.421" class="M"/><path d="M48.312 42.118c-.08-.052-.147-.12-.2-.2a.66.66 0 0 1-.082-.271c-.006-.075.028-.148.09-.2.06-.03.13-.03.2 0a.6.6 0 0 1 .199.199.55.55 0 0 1 .082.281c.004.07-.027.137-.082.18-.062.034-.137.034-.2 0m-.2-3.086h0l.353-.2.353-.208h.1l.072.08.063.11.054.1v.163l-.462.253-.462.27h-.063l-.063-.063-.254-.443-.254-.434v-.145h.063l.063-.045h.063l.072.072.136.253.145.244m-.18-2.86l-.045-.045v-.054h.045l.4.226.408.235v.1l-.408-.226-.4-.235m.4 0l-.063-.063v-.136h.063l.063.063v.136h-.063m1.205.235l-1.205-.697-1.205-.688h-.172l-.063.154v6.072l.063.235.172.18 2.4 1.394h.172l.063-.154v-6.072l-.063-.226-.172-.18" class="B"/></g><path d="M358.74 271.8l-5.734-3.303c-3.886-2.244-9.258-2.778-11.994-1.204s-1.812 4.68 2.093 6.914l5.725 3.312c3.895 2.244 9.258 2.778 11.994 1.204s1.757-4.68-2.084-6.923z" style="mix-blend-mode:multiply" class="H I"/><path d="M343.34 227.33c-.118 1.023-1.34 5.43-1.078 6.932s4.43 4.027 4.43 4.027l.57-2.58-2.346-2.226.625-4.28-2.2-1.873z" class="C"/><path d="M346.5 222.39c-.835-.388-1.83-.088-2.3.697-.616 1.014-1.25 4.525-1.314 5.086.5.674 1.3 1.046 2.147.986l1.477-6.77z" class="W"/><path d="M345.93 269.167c-.04.344-.1.686-.18 1.023-.1.443-.136 1.023.362 1.176.484.205 1.045.073 1.386-.326a9.15 9.15 0 0 1 1.187-1.719 4.06 4.06 0 0 0 1.43-1.864c.18-.724.072-1.167-.426-1.24a3.7 3.7 0 0 0-2.111.796 19.72 19.72 0 0 0-1.649 2.154zm5.698 2.083s0 .58-.072 1.032a4.15 4.15 0 0 0-.045 1.52c.145.335.906.58 1.812.58a4.34 4.34 0 0 1 2.075.769 3.26 3.26 0 0 0 2.6.452c.76-.244 1.603-.588 1.73-.905s-.272-.525-2.12-1.367-3.216-1.43-3.932-2.407l-2.047.326z" class="T"/><path d="M345.486 259.348a21.5 21.5 0 0 1 .815-3.855l-.37-6.48c-.136-3.62-1.377-6.733-.4-9.593l11.06 2.462-.815 16c-.084 1.342-.25 2.678-.498 4l-1.323 9.367a2.45 2.45 0 0 1-2.328 0s-.3-8.036-.217-10.027l.163-2.253-.362-6.072-.245-3.023s-.308 2.217-.498 4.2c-.18 1.73-.598 3.285-1.06 6.507l-1.46 8.525c-.604.41-1.39.435-2.02.063 0 0-.78-7.403-.444-9.82z" fill="#88a9d8"/><path d="M350.967 249.873l-.498 4.2-.408 2.588.1-5.43-.236-3.62c-2.32-.986-2.8-2.407-2.8-2.407 1.03.885 2.238 1.542 3.542 1.928l.3 2.742z" fill="#5b7fb2"/><path d="M347.1 222.443c.842 0 1.468.262 1.576 0a10.85 10.85 0 0 0 .19-1.312l-.18-.507c-1.52-.92-2.277-2.707-1.882-4.437a4.12 4.12 0 0 1 3.622-3.183c2.138-.226 3.705 1.276 4.13 3.34a9.59 9.59 0 0 1-.082 4.851c-.335.905-.634 1.348-1.07 1.493a7.58 7.58 0 0 1-1.268 0h0l-.2 1.04c-.082.407-.045.615.76 1.113s-1.223 1.52-2.546 1.42a4.27 4.27 0 0 1-3.225-1.756c-.453-.977-.417-2.1.163-2.063z" class="C"/><path d="M352.706 224.833l.063.054-1.15.398-3.415-.525-.797-2.036.072-.244c.643.063 1.105.18 1.196 0 .084-.376.14-.757.172-1.14l1.513.244c.317 0 1.413-1.593 1.413-1.593a11.2 11.2 0 0 0 .299 1.719 2.52 2.52 0 0 0 1.504.905l-.172.072a7.58 7.58 0 0 1-1.268 0h0l-.2 1.04c-.082.407-.045.606.76 1.104z" class="K"/><path d="M346.71 214.977c.1-.498.444-1.14 3.107-1.882s4.53-1.014 5.028-.688.607 2.842-1.812 4.036c-.112.208-.168.442-.163.68.023.374.023.748 0 1.122-.044.356-.34.628-.698.643v-1.06a.78.78 0 0 0-1.404.063 1.81 1.81 0 0 0 .082 1.692c.28.525.752.57.906.38a3.32 3.32 0 0 1-.797 2.262 2.51 2.51 0 0 1-2.183-.507 9.76 9.76 0 0 0-.806-1.394c-.607-.754-1.043-1.63-1.277-2.57a5.86 5.86 0 0 1 .018-2.778h0z" fill="#3f2925"/><path d="M348.322 222.57c-.236.58.353 1.294 1.94 1.8s1.72-.145 1.72-.145c1.054.467 2.08.996 3.07 1.584.95.66 1.377 2.58 1.504 5.82.145 3.747.154 9.303 0 10.262a5.74 5.74 0 0 1-4.049 1.575c-2.265-.18-6.088-2.2-7.012-3.738 0-3.285.408-3.82-.127-5.7-1.214-4.335-1.812-6.11-1.268-8.986.49-2.38 1.178-2.67 2.11-2.652.706.024 1.41.084 2.11.18z" fill="#bcf6f7"/><path d="M348.72 222.244c.85.88 2.02 1.373 3.243 1.367.344-.054.534.606.725.905a3 3 0 0 1-2.564.208c-1.767-.452-2.392-1.756-2.247-2.244-.01.027.57-.588.842-.235z" class="W"/><path d="M360.126 235.294c-1.866.47-2.3-.706-2.546-1.674l-1.36-5.8c-.516-1.575-1.06-1.8-1.812-2.136s-1.676.398-1.377 2.407c.37 2.326.942 4.616 1.712 6.842a6.08 6.08 0 0 0 1.531 2.661c.96.778 2.4.742 4.593.2a26.46 26.46 0 0 0 3.723-1.611l1.757-.796a6.34 6.34 0 0 0 2.337-1.81c.47-.688.534-1.014.444-1.176s-.344-.154-.598.145a5.07 5.07 0 0 1-1.341 1.231l.906-.995a4.87 4.87 0 0 0 .707-1.149c.172-.407-.18-.905-.444-.67s-.4.58-.906 1.158c-.253.308-.542.585-.86.824.3-.404.565-.83.797-1.276.2-.353.3-.753.3-1.158 0-.208-.317-.462-.59-.063-.27.55-.61 1.063-1.006 1.53-.426.443-.788.697-.797.57s.263-.362.408-.905 0-1.05-.28-1.113-.226 0-.462.434a15.76 15.76 0 0 0-.779 1.629 3.15 3.15 0 0 1-.77 1.321 6.97 6.97 0 0 1-3.279 1.394h0z" class="C"/><path d="M353.703 225.385c1.24-.2 2.12.37 2.672 2.253l.906 3.43c-.494.71-1.238 1.204-2.084 1.385-1.486.353-2.03-.353-2.03-.353l-.67-3.312c-.263-1.34-.335-3.176 1.205-3.403z" class="W"/><path d="M460.682 312.552l-48.104-27.747c-2.05-1.05-4.48-1.05-6.532 0L385.8 296.588c-1.43.755-2.987 1.24-4.593 1.43-.65.064-1.304-.026-1.91-.262l.498.3.698.38a10.67 10.67 0 0 0 5.2 1.43c.14.11.3.21.444.3l48.113 27.747c2.05 1.05 4.48 1.05 6.532 0l19.93-11.575c1.803-1.05 1.785-2.742-.027-3.783zM428.36 301.05l10.87 6.28-1.94 1.122-10.87-6.28 1.94-1.122zm-18.88-10.86l15.754 9.05-1.93 1.13-15.754-9.05 1.93-1.13zm10.2 14.118a3.5 3.5 0 0 1-3.144 0h0a.96.96 0 0 1 0-1.81c.987-.503 2.156-.503 3.144 0h0c.852.47.86 1.285 0 1.783v.027zm-4.756-2.715a3.42 3.42 0 0 1-3.134 0h0a.96.96 0 0 1 0-1.81c.985-.498 2.15-.498 3.134 0h0a.95.95 0 0 1-.018 1.756l.018.054zm-12.683-7.303a3.42 3.42 0 0 1 3.134 0h0a.96.96 0 0 1 0 1.81c-.985.498-2.15.498-3.134 0h0a.95.95 0 0 1-.018-1.864l.018.054zm2.564 9.566l-9.44-5.43 1.94-1.122 9.44 5.43-1.94 1.122zm2.192-5.014a.96.96 0 0 1 0-1.81c.985-.498 2.15-.498 3.134 0h0a.96.96 0 0 1 0 1.81 3.52 3.52 0 0 1-3.153 0h.018zM424.2 315.06l-16.714-9.638 1.94-1.122 16.714 9.638-1.94 1.122zm13.2.525l-17.067-9.9 1.812-1.077 17.076 9.846-1.82 1.13zm9.802-1.34l-7.52-4.335 1.94-1.122 7.52 4.335-1.94 1.122z" class="B"/><g class="M"><path d="M425.234 299.25l-15.754-9.086-1.93 1.13 15.754 9.086 1.93-1.13m14.006 8.08l-10.88-6.28-1.94 1.122 10.88 6.28 1.94-1.122"/><path d="M449.195 313.068l-7.52-4.335-1.94 1.122 7.52 4.335 1.94-1.122m-42.433-10.398l-9.44-5.44-1.94 1.122 9.44 5.448 1.94-1.13m19.432 11.212l-16.714-9.638-1.94 1.122 16.714 9.638 1.94-1.122"/></g><g fill="#5cebab"><path d="M414.906 299.73h0c-.985-.498-2.15-.498-3.134 0a.96.96 0 0 0 0 1.81h0a3.42 3.42 0 0 0 3.134 0 .95.95 0 0 0 0-1.81m-4.738-2.743h0c-.985-.498-2.15-.498-3.134 0a.96.96 0 0 0 0 1.81h0a3.52 3.52 0 0 0 3.153 0 .96.96 0 0 0 0-1.81"/><path d="M405.42 294.244h0a3.42 3.42 0 0 0-3.134 0 .95.95 0 0 0 0 1.81h0c.985.498 2.15.498 3.134 0a.96.96 0 0 0 0-1.81m14.242 8.218h0c-.987-.503-2.156-.503-3.144 0a.96.96 0 0 0 0 1.81h0a3.5 3.5 0 0 0 3.144 0c.906-.498.852-1.312 0-1.8"/></g><path d="M439.31 314.453l-17.076-9.846-1.857 1.077 17.076 9.846 1.857-1.077" class="M"/><path d="M258.492 299.973c-.122-.06-.2-.182-.2-.317v-.905c0-.3.272-.462.788-.462h3.814a.77.77 0 0 1-.045-.19v-4.914c0-.37.236-.516.906-.507h1.486c.2-.008.4.032.58.118a.4.4 0 0 1 .208.344v6.498c0 .3-.28.452-.788.452h-6.15c-.197.007-.393-.033-.57-.118m11.442-9.43c-2.565-1.4-5.307-2.473-8.153-3.158-11.967 3.167-15.192 8.824-15.192 8.824a21.04 21.04 0 0 0 5.771 4.914c9.73 5.61 21.425 1.982 21.425 1.982 4.05-6.027.417-10.08-3.886-12.56" fill="#63e9ac"/><g fill="#dae3f5"><path d="M218.804 240.398l-.01 3.557-3.09-1.783.01-3.548z"/><path d="M218.804 240.398l5.11-2.96-.01 3.548-5.11 2.968z"/></g><path fill="#f9fbff" d="M215.715 238.624l5.11-2.968 3.09 1.783-5.11 2.96z"/></g></g></g></svg>